<?xml version="1.0" encoding="utf-8"?>
<!-- Generator: Adobe Illustrator 23.0.2, SVG Export Plug-In . SVG Version: 6.00 Build 0)  -->
<svg version="1.1" id="Layer_1" xmlns="http://www.w3.org/2000/svg" xmlns:xlink="http://www.w3.org/1999/xlink" x="0px" y="0px"
	 viewBox="0 0 792 612" enable-background="new 0 0 792 612" xml:space="preserve">
<g>
	<g>
		<path d="M384.7,225.4c0-6.1-0.1-11.8,0-17.5c0.1-2.2,3.4-4.6,6.1-4.6c17-0.1,34-0.2,51.1-0.1c9.9,0,19.9,0.2,29.8,0.8
			c9,0.5,18,2,25.6,7.6c8.3,6.1,13.3,14.3,13.8,24.6c0.7,12.4,1.1,24.8,0.9,37.3c-0.1,5.9-1,12-3.1,17.5c-3.2,8.6-9.3,15-18,18.8
			c-7.2,3.1-14.7,3.8-22.2,4.1c-10.8,0.5-21.6,0.3-32.4,0.4c-14.7,0.1-29.4,0.1-44.1,0c-1.9,0-3.9-0.5-5.7-1.2
			c-0.8-0.3-1.4-1.6-1.6-2.6c-0.3-2.3-0.4-4.6-0.4-7c0-18.5,0.1-36.9,0-55.4c0-2.5,0.6-3.2,3.1-3.1c6.4,0.2,12.7,0.1,19.1,0
			c1.9,0,2.5,0.6,2.4,2.4c-0.1,8.7-0.1,17.4-0.1,26.1c0,4.8,0,9.7,0.2,14.5c0.1,4.2,0.3,4.3,4.6,4.2c12.2,0,24.4-0.1,36.6-0.2
			c5.7,0,11.5,0,17.2-0.3c6.3-0.3,12.2-1.8,16.3-7.3c2.6-3.4,3.3-7.5,3.6-11.6c0.9-11.3,1.2-22.6-0.7-33.8
			c-1.2-6.8-6.8-12.3-14.5-12.9c-27.7-2.1-55.4-0.3-83.1-0.9C387.9,225.3,386.5,225.4,384.7,225.4"/>
		<path d="M111.7,279.4c0,3.5,0,6.9,0,10.3c0.1,6.5,0.2,13.1,0.2,19.6c0,3.3-1.4,4.8-4.7,4.8c-4.9,0.1-9.9,0.1-14.8,0
			c-4-0.1-5.4-1.7-5.4-5.6c0-15.1,0-30.3-0.1-45.4c0-2.3,0.7-3.2,3-3.2c6,0,12-0.2,18-0.2c21-0.1,41.9,0,62.9-0.1c3,0,6.1-0.5,9-1.2
			c2.9-0.7,5-2.9,5.5-5.6c0.9-4.7,1.3-9.5,1.5-14.3c0.1-2.1-0.7-4.3-1.3-6.5c-1-3.7-5.3-6.6-9.7-6.7c-6.2-0.1-12.4-0.1-18.5-0.1
			c-22,0-43.9,0-65.9,0c-4.5,0-4.5-0.1-4.5-4.5c0-3.8,0-7.5,0-11.3c0-3.5,2-5.7,5.5-6c2.1-0.2,4.3-0.3,6.4-0.3
			c24.6-0.1,49.3-0.3,73.9,0c6.6,0.1,13.4,0.9,19.8,2.6c9.4,2.5,15.1,9.2,17.3,18.9c2,8.8,2,17.7,1,26.4
			c-1.1,9.2-4.3,17.7-13.6,22.2c-2.9,1.4-5.9,2.3-9.4,3.7c3.2,4,6.3,7.8,9.3,11.6c5.7,7.1,11.4,14.2,17,21.4c1.5,1.9,0.5,4.2-2,4.3
			c-6.8,0.1-13.6,0.2-20.4-0.1c-1.7-0.1-3.9-1.6-5-3.1c-7.8-10-15.3-20.3-23-30.4c-0.6-0.7-1.7-1.4-2.6-1.4
			c-15.9-0.1-31.9-0.1-47.8-0.1C112.9,279.1,112.3,279.3,111.7,279.4"/>
		<path d="M372.5,313.2c-2.3,0.4-4.1,1-5.9,1.1c-4.8,0.1-9.7,0-14.5,0c-3.6,0-6-1.4-7.7-4.7c-2.6-5.3-5.6-10.3-8.4-15.5
			c-1.2-2.1-2.8-3-5.4-3c-22.7,0.1-45.3,0.1-68,0c-2.4,0-3.1,1.6-3.9,3.1c-2.8,5.2-5.6,10.5-8.3,15.9c-1.4,2.8-3.4,4.4-6.7,4.3
			c-6-0.1-12,0-18-0.1c-3,0-3.7-0.8-2.5-3.5c2.2-4.9,4.7-9.6,7.3-14.3c14.3-26.4,28.7-52.7,43.1-79c1.3-2.3,2.8-4.6,4.3-6.8
			c2.6-4.1,6.4-6.6,11.1-7.2c7.1-0.9,14.3-1.4,21,2.2c4.2,2.2,7,5.9,9.2,9.8c5.9,10.3,11.5,20.7,17.2,31.1
			c10.9,19.8,21.8,39.7,32.7,59.5C370.2,308.2,371.2,310.4,372.5,313.2 M270.3,273h53.9c-0.8-1.7-1.3-3-2-4.2
			c-6.7-12.2-13.2-24.4-20.1-36.6c-1.4-2.5-1.3-6.7-5.4-8C288.3,240,279.2,256.6,270.3,273"/>
		<path d="M636.7,270.6c-4.8,5.1-9.4,10-14,14.8c-8.1,8.5-16.3,16.9-24.3,25.4c-2.3,2.4-5,3.6-8.3,3.5c-5.5-0.1-10.9-0.1-16.4-0.1
			c-1.8,0-3.4-0.5-3.8-2.2c-0.2-0.9,0.7-2.3,1.5-3.1c16.1-16.7,32.2-33.4,48.3-50.1c0.9-0.9,1.7-1.8,2.7-3c-3.5-3.7-7-7.3-10.4-10.9
			c-11.8-12.2-23.7-24.4-35.6-36.6c-1.2-1.2-1.8-2.4-1.2-4c0.7-1.8,2.2-1.4,3.6-1.4c6,0,12,0,18-0.1c5.3-0.1,4.1-0.8,7.6,3.1
			c8.1,8.5,16.1,17,24.2,25.5c2.3,2.5,4.7,4.9,7.1,7.4c20.6,21.3,41.3,42.5,61.9,63.8c2.3,2.4,4.4,5,6.7,7.4c1.5,1.6,1,2.5-0.7,3.2
			c-1,0.4-2,0.6-3.1,0.7c-5.7,0.1-11.5,0.1-17.2,0.3c-3.2,0.1-5.8-1-7.9-3.3c-9.7-10.1-19.5-20.3-29.2-30.5
			C643.1,277.5,640.1,274.3,636.7,270.6"/>
		<path d="M556.2,258.7c0,16.9,0,33.9,0,50.8c0,3.4-1.4,4.8-4.9,4.8c-4.7,0-9.5,0-14.2,0c-3.7-0.1-4.9-1.1-5-4.8
			c-0.2-4.9,0-9.9,0-14.8c0-27.7-0.1-55.4-0.1-83.1c0-8.4,0-8.4,8.4-8.7c3.7-0.1,7.3-0.1,11-0.1c3.5,0,4.7,1.2,4.7,4.7
			c0,17,0,34.1,0,51.1C556.1,258.7,556.1,258.7,556.2,258.7"/>
		<path fill="#F7AC06" d="M694.6,212.9c-7.7,7.9-15.6,15.7-23.4,23.5c-1.1,1.1-2,2.2-2.9,3.4c-1.1,1.4-2.2,1.7-3.6,0.4
			c-3.2-3-6.5-5.9-9.7-8.9c-0.5-0.5-1.3-1.1-1.9-1.7c-0.6-0.5-0.6-1.4,0-2c6.5-6.6,14-13.8,21-20.7c0.9-0.9,2.7-1.3,4-1.3l21.2,0
			c1.1,0,1.6,1.3,0.8,2L694.6,212.9z"/>
		<polygon points="296.7,224.3 303.3,234.4 308.7,228.9 		"/>
	</g>
	<g>
		<path d="M202,342.4h-8.2v-5.3h22.6v5.3h-8.2v22.7H202V342.4z"/>
		<path d="M238.8,337.1H257v5.3h-12v5.6h10.2v5.3H245v6.4h12.4v5.3h-18.6V337.1z"/>
		<path d="M279.6,351.2c0-9.3,5.7-14.7,13.1-14.7c3.5,0,6.3,1.7,8.2,3.6l-3.4,3.9c-1.3-1.2-2.8-2-4.8-2c-3.9,0-6.7,3.4-6.7,9
			c0,5.8,2.8,9.1,7,9.1c2,0,3.6-1,4.9-2.5l3.4,3.8c-2.2,2.7-5.3,4.1-9,4.1C285.5,365.6,279.6,360.7,279.6,351.2z"/>
		<path d="M322.5,337.1h6.2v10.8h7.4v-10.8h6.2v28h-6.2v-11.7h-7.4v11.7h-6.2V337.1z"/>
		<path d="M365,337.1h6.3l5.8,13.9l2.3,6.2h0.1c-0.3-3-0.9-6.9-0.9-10.2v-9.9h5.9v28h-6.3l-5.8-14l-2.3-6.1H370
			c0.3,3.1,0.9,6.9,0.9,10.1v9.9H365V337.1z"/>
		<path d="M406.2,350.9c0-9.4,4.5-14.4,11-14.4c6.5,0,11,5,11,14.4c0,9.6-4.5,14.7-11,14.7C410.7,365.6,406.2,360.5,406.2,350.9z
			 M421.9,350.9c0-5.8-1.8-8.9-4.7-8.9s-4.7,3.1-4.7,8.9c0,6,1.8,9.2,4.7,9.2S421.9,357,421.9,350.9z"/>
		<path d="M449.3,351.2c0-9.3,5.7-14.7,13.1-14.7c3.5,0,6.3,1.7,8.2,3.6l-3.4,3.9c-1.3-1.2-2.8-2-4.8-2c-3.9,0-6.7,3.4-6.7,9
			c0,5.8,2.8,9.1,7,9.1c2,0,3.6-1,4.9-2.5l3.4,3.8c-2.2,2.7-5.3,4.1-9,4.1C455.2,365.6,449.3,360.7,449.3,351.2z"/>
		<path d="M498.3,337.1h7.4l8.5,28h-6.6l-3.5-14.2c-0.7-2.8-1.5-6.1-2.2-9h-0.2c-0.7,3-1.4,6.2-2.1,9l-3.6,14.2h-6.3L498.3,337.1z
			 M495.5,353.5h13.1v4.9h-13.1V353.5z"/>
		<path d="M534,361.6l3.6-4.4c2.1,1.7,4.6,2.9,7.3,2.9c2.6,0,3.8-1,3.8-2.4c0-2-1.6-2.5-4.2-3.6l-3.6-1.6c-3-1.2-5.8-3.6-5.8-7.6
			c0-4.6,4.1-8.4,10-8.4c3.3,0,6.6,1.3,9.1,3.7l-3.1,4c-1.9-1.4-3.6-2.2-6.3-2.2c-2,0-3.4,0.9-3.4,2.5c0,1.7,1.8,2.3,4.5,3.3
			l3.3,1.5c3.6,1.4,5.8,3.7,5.8,7.6c0,4.7-3.8,8.7-10.6,8.7C540.7,365.6,536.9,364.2,534,361.6z"/>
		<path d="M583.8,342.4h-8.2v-5.3h22.6v5.3H590v22.7h-6.2V342.4z"/>
	</g>
	<g>
		<path fill="#F7AC06" d="M157.2,387.2h4.3V409h-3.4v-16.1l0.2,1l-3.6,12H152l-3.6-11.7l0.2-1.3V409h-3.5v-21.8h4.4l3.8,13.3
			L157.2,387.2z"/>
		<path fill="#F7AC06" d="M165.2,387.2h3.8V409h-3.8V387.2z M166.7,387.2h10.2v3.8h-10.2V387.2z M166.7,396.5h9v3.7h-9V396.5z"/>
		<path fill="#F7AC06" d="M192,397v5.4c0,1.4-0.3,2.6-0.8,3.6c-0.5,1-1.3,1.8-2.3,2.4s-2.1,0.8-3.5,0.8c-1.3,0-2.5-0.3-3.5-0.8
			c-1-0.5-1.8-1.3-2.3-2.3s-0.8-2.1-0.8-3.4v-8.9c0-1.4,0.3-2.6,0.8-3.7c0.5-1,1.3-1.8,2.3-2.4s2.1-0.8,3.4-0.8s2.4,0.3,3.4,0.8
			s1.6,1.3,2.2,2.3s0.8,2.3,0.9,3.8h-4c0-0.6-0.2-1.2-0.4-1.6s-0.5-0.7-0.8-0.9s-0.8-0.3-1.2-0.3c-0.5,0-1,0.1-1.4,0.4
			c-0.4,0.2-0.7,0.6-0.9,1c-0.2,0.4-0.3,0.9-0.3,1.5v8.9c0,0.5,0.1,0.9,0.3,1.3s0.5,0.7,0.9,0.9s0.9,0.3,1.4,0.3s1-0.1,1.4-0.3
			s0.7-0.5,0.9-0.9c0.2-0.4,0.3-0.9,0.3-1.5v-1.7h-2.5V397H192z"/>
		<path fill="#F7AC06" d="M194.7,405.1h3.8v3.9h-3.8V405.1z"/>
		<path fill="#F7AC06" d="M212.2,401c-0.6,0.5-0.9,1.3-0.9,2.2c0,0.8,0.3,1.4,0.8,1.9c0.5,0.4,1.2,0.7,2.2,0.7s1.7-0.3,2.4-1
			c0.7-0.6,1.2-1.6,1.5-2.8s0.5-2.6,0.5-4.3h3.6c0,2.4-0.3,4.5-1,6.2s-1.7,3.1-3,4c-1.3,0.9-2.9,1.4-4.7,1.4c-1.3,0-2.3-0.2-3.2-0.7
			s-1.6-1.2-2-2.1c-0.5-0.9-0.7-2-0.7-3.3c0-1.7,0.5-3.1,1.5-4.1s2.4-1.6,4.2-1.8l1.2,2.9C213.6,400.2,212.8,400.4,212.2,401z
			 M212.7,400.3c-0.7-1-1.3-1.9-1.7-2.7s-0.8-1.6-1-2.5s-0.4-1.7-0.4-2.6c0-1.8,0.5-3.1,1.4-4.1s2.3-1.5,4-1.5c1.7,0,3.1,0.5,4,1.4
			c0.9,0.9,1.4,2.3,1.4,4v1.2h-3.8v-1.2c0-0.7-0.1-1.3-0.4-1.7c-0.3-0.4-0.7-0.6-1.2-0.6c-0.6,0-1,0.2-1.3,0.6s-0.5,1-0.5,1.8
			c0,0.6,0.1,1.2,0.3,1.9c0.2,0.7,0.5,1.3,0.9,2c0.4,0.7,0.9,1.5,1.5,2.2l7.7,10.3h-4.5L212.7,400.3z"/>
		<path fill="#F7AC06" d="M236.8,409.2c0,0-0.5-0.2-1.4-0.5c-0.9-0.4-1.7-0.9-2.2-1.6s-1-1.6-1.3-2.7l3.6-1.6c0.3,0.9,0.7,1.5,1.3,2
			s1.3,0.7,2.1,0.7c0.8,0,1.5-0.2,2-0.6c0.5-0.4,0.7-0.9,0.7-1.6v-1c0-0.5-0.1-0.9-0.4-1.2c-0.3-0.3-0.6-0.6-1.1-0.8
			c-0.4-0.2-1-0.4-1.7-0.6c0,0-0.1,0-0.1,0c0,0,0,0-0.1,0l-0.2,0c-1.2-0.4-2.1-0.7-2.8-1.1s-1.4-1-1.9-1.8c-0.5-0.8-0.8-1.9-0.8-3.2
			v-0.6c0-1.2,0.3-2.3,0.8-3.2c0.5-0.9,1.3-1.6,2.2-2.1s2.2-0.7,3.6-0.7c1.1,0,2,0.2,2.8,0.5s1.5,0.9,2,1.6s0.9,1.6,1.2,2.6
			l-3.4,1.6c-0.3-0.8-0.7-1.4-1.2-1.9s-1.1-0.6-1.7-0.6c-0.8,0-1.5,0.2-1.9,0.5c-0.4,0.4-0.7,0.8-0.7,1.5v0.7c0,0.5,0.1,1,0.4,1.3
			s0.7,0.6,1.1,0.8c0.4,0.2,1,0.4,1.8,0.7c0.1,0,0.1,0,0.2,0.1c0.1,0,0.1,0,0.2,0.1c0.1,0,0.1,0,0.1,0c0,0,0.1,0,0.1,0
			c1.1,0.3,1.9,0.7,2.6,1.1c0.7,0.4,1.3,1,1.8,1.7s0.7,1.8,0.7,3.1v0.9c0,1.3-0.3,2.3-0.8,3.2c-0.5,0.9-1.3,1.6-2.3,2.1
			s-2.2,0.7-3.6,0.7C237.4,409.2,236.8,409.2,236.8,409.2z"/>
		<path fill="#F7AC06" d="M251.1,408.4c-1-0.5-1.7-1.3-2.2-2.3s-0.8-2.2-0.8-3.7v-15.2h3.8v15.3c0,0.9,0.2,1.6,0.7,2.1
			s1.1,0.7,1.9,0.7c0.8,0,1.5-0.2,1.9-0.7s0.7-1.2,0.7-2.1v-15.3h3.8v15.2c0,1.4-0.3,2.7-0.8,3.7s-1.2,1.8-2.2,2.3s-2.1,0.8-3.5,0.8
			S252.1,408.9,251.1,408.4z"/>
		<path fill="#F7AC06" d="M264.4,387.2h3.8V409h-3.8V387.2z M266.2,396.7h5.3c0.4,0,0.7-0.1,1-0.3c0.3-0.2,0.5-0.4,0.7-0.8
			s0.2-0.7,0.2-1.2v-1.3c0-0.5-0.1-0.9-0.2-1.2c-0.2-0.3-0.4-0.6-0.7-0.8s-0.6-0.3-1-0.3h-5.3v-3.8h5.3c1.2,0,2.2,0.2,3.1,0.7
			c0.9,0.5,1.6,1.1,2,2c0.5,0.9,0.7,1.9,0.7,3.1v1.9c0,1.2-0.2,2.2-0.7,3s-1.2,1.5-2,2s-1.9,0.7-3.1,0.7h-5.3V396.7z"/>
		<path fill="#F7AC06" d="M280.3,387.2h3.8V409h-3.8V387.2z M282.1,396.7h5.3c0.4,0,0.7-0.1,1-0.3c0.3-0.2,0.5-0.4,0.7-0.8
			s0.2-0.7,0.2-1.2v-1.3c0-0.5-0.1-0.9-0.2-1.2c-0.2-0.3-0.4-0.6-0.7-0.8s-0.6-0.3-1-0.3h-5.3v-3.8h5.3c1.2,0,2.2,0.2,3.1,0.7
			c0.9,0.5,1.6,1.1,2,2c0.5,0.9,0.7,1.9,0.7,3.1v1.9c0,1.2-0.2,2.2-0.7,3s-1.2,1.5-2,2s-1.9,0.7-3.1,0.7h-5.3V396.7z"/>
		<path fill="#F7AC06" d="M296.2,387.2h3.8V409h-3.8V387.2z M297.9,405.2h10.1v3.8h-10.1V405.2z"/>
		<path fill="#F7AC06" d="M313.9,409h-3.9v-21.8h3.9V409z"/>
		<path fill="#F7AC06" d="M317.3,387.2h3.8V409h-3.8V387.2z M318.8,387.2h10.3v3.8h-10.3V387.2z M318.8,396.2h9.2v3.8h-9.2V396.2z
			 M318.8,405.2h10.3v3.8h-10.3V405.2z"/>
		<path fill="#F7AC06" d="M331.9,387.1h3.8V409h-3.8V387.1z M333.6,396.2h5.6c0.4,0,0.7-0.1,1-0.2s0.5-0.4,0.6-0.7s0.2-0.7,0.2-1
			V393c0-0.4-0.1-0.8-0.2-1.1c-0.1-0.3-0.3-0.6-0.6-0.7s-0.6-0.2-1-0.2h-5.6v-3.8h5.7c1.2,0,2.2,0.2,3,0.7c0.9,0.5,1.5,1.1,2,2
			c0.5,0.9,0.7,1.9,0.7,3.1v1.3c0,1.2-0.2,2.2-0.7,3.1c-0.5,0.9-1.1,1.5-2,2s-1.9,0.7-3,0.7h-5.7V396.2z M337.3,399.3l3.8-0.7
			l4.6,10.4h-4.4L337.3,399.3z"/>
		<path fill="#F7AC06" d="M358.4,408.4c-1-0.5-1.8-1.3-2.3-2.3c-0.5-1-0.8-2.2-0.8-3.5v-9.1c0-1.3,0.3-2.5,0.8-3.5
			c0.5-1,1.3-1.7,2.3-2.3s2.2-0.8,3.5-0.8s2.5,0.3,3.5,0.8s1.8,1.3,2.3,2.3c0.5,1,0.8,2.2,0.8,3.5v9.1c0,1.3-0.3,2.5-0.8,3.5
			c-0.5,1-1.3,1.8-2.3,2.3c-1,0.5-2.2,0.8-3.5,0.8S359.4,408.9,358.4,408.4z M363.4,404.9c0.4-0.2,0.7-0.6,0.9-1s0.3-0.9,0.3-1.5
			v-8.7c0-0.6-0.1-1.1-0.3-1.5s-0.5-0.8-0.9-1c-0.4-0.2-0.9-0.4-1.4-0.4s-1,0.1-1.4,0.4c-0.4,0.2-0.7,0.6-0.9,1s-0.3,0.9-0.3,1.5
			v8.7c0,0.6,0.1,1.1,0.3,1.5s0.5,0.8,0.9,1c0.4,0.2,0.9,0.3,1.4,0.3S363,405.2,363.4,404.9z"/>
		<path fill="#F7AC06" d="M372,387.2h3.8V409H372V387.2z M373.5,387.2h10.2v3.8h-10.2V387.2z M373.5,396.5h9v3.7h-9V396.5z"/>
		<path fill="#F7AC06" d="M397,409.2c0,0-0.5-0.2-1.4-0.5c-0.9-0.4-1.7-0.9-2.2-1.6s-1-1.6-1.3-2.7l3.6-1.6c0.3,0.9,0.7,1.5,1.3,2
			c0.6,0.5,1.3,0.7,2.1,0.7c0.8,0,1.5-0.2,2-0.6c0.5-0.4,0.7-0.9,0.7-1.6v-1c0-0.5-0.1-0.9-0.4-1.2c-0.3-0.3-0.6-0.6-1.1-0.8
			c-0.4-0.2-1-0.4-1.7-0.6c0,0-0.1,0-0.1,0c0,0,0,0-0.1,0l-0.2,0c-1.2-0.4-2.1-0.7-2.8-1.1s-1.4-1-1.9-1.8c-0.5-0.8-0.8-1.9-0.8-3.2
			v-0.6c0-1.2,0.3-2.3,0.8-3.2c0.5-0.9,1.3-1.6,2.2-2.1s2.2-0.7,3.6-0.7c1.1,0,2,0.2,2.8,0.5c0.8,0.3,1.5,0.9,2,1.6s0.9,1.6,1.2,2.6
			l-3.4,1.6c-0.3-0.8-0.7-1.4-1.2-1.9s-1.1-0.6-1.7-0.6c-0.8,0-1.5,0.2-1.9,0.5c-0.4,0.4-0.7,0.8-0.7,1.5v0.7c0,0.5,0.1,1,0.4,1.3
			s0.7,0.6,1.1,0.8c0.4,0.2,1,0.4,1.8,0.7c0.1,0,0.1,0,0.2,0.1c0.1,0,0.1,0,0.2,0.1c0.1,0,0.1,0,0.1,0c0,0,0.1,0,0.1,0
			c1.1,0.3,1.9,0.7,2.6,1.1c0.7,0.4,1.3,1,1.8,1.7c0.5,0.8,0.7,1.8,0.7,3.1v0.9c0,1.3-0.3,2.3-0.8,3.2c-0.5,0.9-1.3,1.6-2.3,2.1
			s-2.2,0.7-3.6,0.7C397.6,409.2,397,409.2,397,409.2z"/>
		<path fill="#F7AC06" d="M413.7,387.2h2.5l6.6,21.8h-4l-3.9-14.6l-3.9,14.6h-4L413.7,387.2z M410.8,401.8h8.5v3.7h-8.5V401.8z"/>
		<path fill="#F7AC06" d="M425,387.2h3.9l6.5,15.6l-0.4,0.5v-16.1h3.6v21.8h-3.9l-6.4-15.1l0.4-0.5v15.6H425V387.2z"/>
		<path fill="#F7AC06" d="M442.2,387.2h3.8V409h-3.8V387.2z M444.4,405.2h3.9c0.9,0,1.6-0.2,2.1-0.7c0.5-0.5,0.7-1.2,0.7-2v-8.8
			c0-0.9-0.2-1.6-0.7-2c-0.5-0.5-1.2-0.7-2.1-0.7h-3.9v-3.8h4c1.4,0,2.6,0.2,3.6,0.7c1,0.5,1.7,1.2,2.3,2.2c0.5,1,0.8,2.1,0.8,3.4
			v9.1c0,1.3-0.3,2.4-0.8,3.4c-0.5,1-1.3,1.7-2.2,2.2c-1,0.5-2.2,0.8-3.6,0.8h-4V405.2z"/>
		<path fill="#F7AC06" d="M469.7,409.2c0,0-0.5-0.3-1.4-0.8s-1.7-1.3-2.2-2.3s-0.8-2.3-0.8-3.7v-8.6c0-1.4,0.3-2.7,0.8-3.7
			c0.5-1,1.2-1.8,2.2-2.3c1-0.5,2.1-0.8,3.5-0.8c1.3,0,2.4,0.3,3.4,0.8s1.6,1.4,2.1,2.5c0.5,1.1,0.8,2.5,0.9,4.2h-3.9
			c-0.1-0.8-0.2-1.4-0.4-2c-0.2-0.5-0.5-0.9-0.8-1.1s-0.8-0.4-1.2-0.4c-0.5,0-1,0.1-1.3,0.3c-0.4,0.2-0.7,0.6-0.9,1
			c-0.2,0.4-0.3,1-0.3,1.6v8.6c0,0.6,0.1,1.1,0.3,1.6c0.2,0.4,0.5,0.8,0.9,1c0.4,0.2,0.8,0.3,1.3,0.3c0.5,0,0.9-0.1,1.2-0.4
			s0.6-0.6,0.8-1.1s0.3-1.2,0.4-2h3.9c-0.1,1.7-0.4,3.1-0.9,4.2s-1.2,1.9-2.1,2.5s-2,0.8-3.3,0.8
			C470.4,409.2,469.7,409.2,469.7,409.2z"/>
		<path fill="#F7AC06" d="M486.2,387.2h2.5l6.6,21.8h-4l-3.9-14.6l-3.9,14.6h-4L486.2,387.2z M483.2,401.8h8.5v3.7h-8.5V401.8z"/>
		<path fill="#F7AC06" d="M501.5,409.2c0,0-0.5-0.2-1.4-0.5c-0.9-0.4-1.7-0.9-2.2-1.6s-1-1.6-1.3-2.7l3.6-1.6c0.3,0.9,0.7,1.5,1.3,2
			c0.6,0.5,1.3,0.7,2.1,0.7c0.8,0,1.5-0.2,2-0.6c0.5-0.4,0.7-0.9,0.7-1.6v-1c0-0.5-0.1-0.9-0.4-1.2c-0.3-0.3-0.6-0.6-1.1-0.8
			c-0.4-0.2-1-0.4-1.7-0.6c0,0-0.1,0-0.1,0c0,0,0,0-0.1,0l-0.2,0c-1.2-0.4-2.1-0.7-2.8-1.1s-1.4-1-1.9-1.8c-0.5-0.8-0.8-1.9-0.8-3.2
			v-0.6c0-1.2,0.3-2.3,0.8-3.2c0.5-0.9,1.3-1.6,2.2-2.1s2.2-0.7,3.6-0.7c1.1,0,2,0.2,2.8,0.5c0.8,0.3,1.5,0.9,2,1.6s0.9,1.6,1.2,2.6
			l-3.4,1.6c-0.3-0.8-0.7-1.4-1.2-1.9s-1.1-0.6-1.7-0.6c-0.8,0-1.5,0.2-1.9,0.5c-0.4,0.4-0.7,0.8-0.7,1.5v0.7c0,0.5,0.1,1,0.4,1.3
			s0.7,0.6,1.1,0.8c0.4,0.2,1,0.4,1.8,0.7c0.1,0,0.1,0,0.2,0.1c0.1,0,0.1,0,0.2,0.1c0.1,0,0.1,0,0.1,0c0,0,0.1,0,0.1,0
			c1.1,0.3,1.9,0.7,2.6,1.1c0.7,0.4,1.3,1,1.8,1.7c0.5,0.8,0.7,1.8,0.7,3.1v0.9c0,1.3-0.3,2.3-0.8,3.2c-0.5,0.9-1.3,1.6-2.3,2.1
			s-2.2,0.7-3.6,0.7C502.1,409.2,501.5,409.2,501.5,409.2z"/>
		<path fill="#F7AC06" d="M510.9,387.2h13.1v3.8h-13.1V387.2z M515.6,389h3.8v20h-3.8V389z"/>
		<path fill="#F7AC06" d="M529.1,409h-3.9v-21.8h3.9V409z"/>
		<path fill="#F7AC06" d="M532.5,387.2h3.9l6.5,15.6l-0.4,0.5v-16.1h3.6v21.8h-3.9l-6.4-15.1l0.4-0.5v15.6h-3.6V387.2z"/>
		<path fill="#F7AC06" d="M562.6,397v5.4c0,1.4-0.3,2.6-0.8,3.6c-0.5,1-1.3,1.8-2.3,2.4c-1,0.5-2.1,0.8-3.4,0.8
			c-1.3,0-2.5-0.3-3.5-0.8c-1-0.5-1.8-1.3-2.3-2.3s-0.8-2.1-0.8-3.4v-8.9c0-1.4,0.3-2.6,0.8-3.7c0.5-1,1.3-1.8,2.3-2.4
			c1-0.6,2.1-0.8,3.4-0.8s2.4,0.3,3.4,0.8s1.6,1.3,2.2,2.3s0.8,2.3,0.9,3.8h-4c0-0.6-0.2-1.2-0.4-1.6s-0.5-0.7-0.8-0.9
			c-0.3-0.2-0.8-0.3-1.2-0.3c-0.5,0-1,0.1-1.4,0.4c-0.4,0.2-0.7,0.6-0.9,1c-0.2,0.4-0.3,0.9-0.3,1.5v8.9c0,0.5,0.1,0.9,0.3,1.3
			s0.5,0.7,0.9,0.9s0.9,0.3,1.4,0.3s1-0.1,1.4-0.3c0.4-0.2,0.7-0.5,0.9-0.9c0.2-0.4,0.3-0.9,0.3-1.5v-1.7h-2.5V397H562.6z"/>
		<path fill="#F7AC06" d="M573.1,387.2h3.8V409h-3.8V387.2z M574.8,396.7h5.3c0.4,0,0.7-0.1,1-0.3c0.3-0.2,0.5-0.4,0.7-0.8
			c0.2-0.3,0.2-0.7,0.2-1.2v-1.3c0-0.5-0.1-0.9-0.2-1.2c-0.2-0.3-0.4-0.6-0.7-0.8s-0.6-0.3-1-0.3h-5.3v-3.8h5.3
			c1.2,0,2.2,0.2,3.1,0.7c0.9,0.5,1.6,1.1,2,2c0.5,0.9,0.7,1.9,0.7,3.1v1.9c0,1.2-0.2,2.2-0.7,3c-0.5,0.9-1.2,1.5-2,2
			s-1.9,0.7-3.1,0.7h-5.3V396.7z"/>
		<path fill="#F7AC06" d="M594,387.2h2.5l6.6,21.8h-4l-3.9-14.6l-3.9,14.6h-4L594,387.2z M591.1,401.8h8.5v3.7h-8.5V401.8z"/>
		<path fill="#F7AC06" d="M605.3,387.1h3.8V409h-3.8V387.1z M606.9,396.2h5.6c0.4,0,0.7-0.1,1-0.2s0.5-0.4,0.6-0.7s0.2-0.7,0.2-1
			V393c0-0.4-0.1-0.8-0.2-1.1c-0.1-0.3-0.3-0.6-0.6-0.7s-0.6-0.2-1-0.2h-5.6v-3.8h5.7c1.2,0,2.2,0.2,3,0.7c0.9,0.5,1.5,1.1,2,2
			c0.5,0.9,0.7,1.9,0.7,3.1v1.3c0,1.2-0.2,2.2-0.7,3.1c-0.5,0.9-1.1,1.5-2,2s-1.9,0.7-3,0.7h-5.7V396.2z M610.6,399.3l3.8-0.7
			L619,409h-4.4L610.6,399.3z"/>
		<path fill="#F7AC06" d="M619.7,387.2h13.1v3.8h-13.1V387.2z M624.3,389h3.8v20h-3.8V389z"/>
		<path fill="#F7AC06" d="M638.3,409.2c0,0-0.5-0.2-1.4-0.5c-0.9-0.4-1.7-0.9-2.2-1.6s-1-1.6-1.3-2.7l3.6-1.6c0.3,0.9,0.7,1.5,1.3,2
			c0.6,0.5,1.3,0.7,2.1,0.7c0.8,0,1.5-0.2,2-0.6c0.5-0.4,0.7-0.9,0.7-1.6v-1c0-0.5-0.1-0.9-0.4-1.2c-0.3-0.3-0.6-0.6-1.1-0.8
			c-0.4-0.2-1-0.4-1.7-0.6c0,0-0.1,0-0.1,0c0,0,0,0-0.1,0l-0.2,0c-1.2-0.4-2.1-0.7-2.8-1.1s-1.4-1-1.9-1.8c-0.5-0.8-0.8-1.9-0.8-3.2
			v-0.6c0-1.2,0.3-2.3,0.8-3.2c0.5-0.9,1.3-1.6,2.2-2.1s2.2-0.7,3.6-0.7c1.1,0,2,0.2,2.8,0.5c0.8,0.3,1.5,0.9,2,1.6s0.9,1.6,1.2,2.6
			l-3.4,1.6c-0.3-0.8-0.7-1.4-1.2-1.9s-1.1-0.6-1.7-0.6c-0.8,0-1.5,0.2-1.9,0.5c-0.4,0.4-0.7,0.8-0.7,1.5v0.7c0,0.5,0.1,1,0.4,1.3
			s0.7,0.6,1.1,0.8c0.4,0.2,1,0.4,1.8,0.7c0.1,0,0.1,0,0.2,0.1c0.1,0,0.1,0,0.2,0.1c0.1,0,0.1,0,0.1,0c0,0,0.1,0,0.1,0
			c1.1,0.3,1.9,0.7,2.6,1.1c0.7,0.4,1.3,1,1.8,1.7c0.5,0.8,0.7,1.8,0.7,3.1v0.9c0,1.3-0.3,2.3-0.8,3.2c-0.5,0.9-1.3,1.6-2.3,2.1
			s-2.2,0.7-3.6,0.7C638.9,409.2,638.3,409.2,638.3,409.2z"/>
	</g>
</g>
</svg>
