<?xml version="1.0" encoding="utf-8"?>
<!-- Generator: Adobe Illustrator 23.0.2, SVG Export Plug-In . SVG Version: 6.00 Build 0)  -->
<svg version="1.1" id="Layer_1" xmlns="http://www.w3.org/2000/svg" xmlns:xlink="http://www.w3.org/1999/xlink" x="0px" y="0px"
	 viewBox="0 0 620 210" style="enable-background:new 0 0 620 210;" xml:space="preserve">
<style type="text/css">
	.st0{fill:#FFFFFF;}
	.st1{fill:#F7AC06;}
</style>
<g>
	<g>
		<path class="st0" d="M298.7,24.4c0-6.1-0.1-11.8,0-17.5c0.1-2.2,3.4-4.6,6.1-4.6c17-0.1,34-0.2,51.1-0.1c9.9,0,19.9,0.2,29.8,0.8
			c9,0.5,18,2,25.6,7.6c8.3,6.1,13.3,14.3,13.8,24.6c0.7,12.4,1.1,24.8,0.9,37.3c-0.1,5.9-1,12-3.1,17.5c-3.2,8.6-9.3,15-18,18.8
			c-7.2,3.1-14.7,3.8-22.2,4.1c-10.8,0.5-21.6,0.3-32.4,0.4c-14.7,0.1-29.4,0.1-44.1,0c-1.9,0-3.9-0.5-5.7-1.2
			c-0.8-0.3-1.4-1.6-1.6-2.6c-0.3-2.3-0.4-4.6-0.4-7c0-18.5,0.1-36.9,0-55.4c0-2.5,0.6-3.2,3.1-3.1c6.4,0.2,12.7,0.1,19.1,0
			c1.9,0,2.5,0.6,2.4,2.4c-0.1,8.7-0.1,17.4-0.1,26.1c0,4.8,0,9.7,0.2,14.5c0.1,4.2,0.3,4.3,4.6,4.2c12.2,0,24.4-0.1,36.6-0.2
			c5.7,0,11.5,0,17.2-0.3c6.3-0.3,12.2-1.8,16.3-7.3c2.6-3.4,3.3-7.5,3.6-11.6c0.9-11.3,1.2-22.6-0.7-33.8
			c-1.2-6.8-6.8-12.3-14.5-12.9c-27.7-2.1-55.4-0.3-83.1-0.9C301.9,24.3,300.5,24.4,298.7,24.4"/>
		<path class="st0" d="M25.7,78.4c0,3.5,0,6.9,0,10.3c0.1,6.5,0.2,13.1,0.2,19.6c0,3.3-1.4,4.8-4.7,4.8c-4.9,0.1-9.9,0.1-14.8,0
			c-4-0.1-5.4-1.7-5.4-5.6c0-15.1,0-30.3-0.1-45.4C1,59.8,1.7,59,4,59c6,0,12-0.2,18-0.2c21-0.1,41.9,0,62.9-0.1c3,0,6.1-0.5,9-1.2
			s5-2.9,5.5-5.6c0.9-4.7,1.3-9.5,1.5-14.3c0.1-2.1-0.7-4.3-1.3-6.5c-1-3.7-5.3-6.6-9.7-6.7c-6.2-0.1-12.4-0.1-18.5-0.1
			c-22,0-43.9,0-65.9,0C1,24.3,1,24.2,1,19.8C1,16,1,12.3,1,8.5c0-3.5,2-5.7,5.5-6c2.1-0.2,4.3-0.3,6.4-0.3
			c24.6-0.1,49.3-0.3,73.9,0c6.6,0.1,13.4,0.9,19.8,2.6c9.4,2.5,15.1,9.2,17.3,18.9c2,8.8,2,17.7,1,26.4
			c-1.1,9.2-4.3,17.7-13.6,22.2c-2.9,1.4-5.9,2.3-9.4,3.7c3.2,4,6.3,7.8,9.3,11.6c5.7,7.1,11.4,14.2,17,21.4c1.5,1.9,0.5,4.2-2,4.3
			c-6.8,0.1-13.6,0.2-20.4-0.1c-1.7-0.1-3.9-1.6-5-3.1c-7.8-10-15.3-20.3-23-30.4c-0.6-0.7-1.7-1.4-2.6-1.4
			c-15.9-0.1-31.9-0.1-47.8-0.1C26.9,78.1,26.3,78.3,25.7,78.4"/>
		<path class="st0" d="M286.5,112.2c-2.3,0.4-4.1,1-5.9,1.1c-4.8,0.1-9.7,0-14.5,0c-3.6,0-6-1.4-7.7-4.7c-2.6-5.3-5.6-10.3-8.4-15.5
			c-1.2-2.1-2.8-3-5.4-3c-22.7,0.1-45.3,0.1-68,0c-2.4,0-3.1,1.6-3.9,3.1c-2.8,5.2-5.6,10.5-8.3,15.9c-1.4,2.8-3.4,4.4-6.7,4.3
			c-6-0.1-12,0-18-0.1c-3,0-3.7-0.8-2.5-3.5c2.2-4.9,4.7-9.6,7.3-14.3c14.3-26.4,28.7-52.7,43.1-79c1.3-2.3,2.8-4.6,4.3-6.8
			c2.6-4.1,6.4-6.6,11.1-7.2c7.1-0.9,14.3-1.4,21,2.2c4.2,2.2,7,5.9,9.2,9.8c5.9,10.3,11.5,20.7,17.2,31.1
			c10.9,19.8,21.8,39.7,32.7,59.5C284.2,107.2,285.2,109.4,286.5,112.2 M184.3,72h53.9c-0.8-1.7-1.3-3-2-4.2
			c-6.7-12.2-13.2-24.4-20.1-36.6c-1.4-2.5-1.3-6.7-5.4-8C202.3,39,193.2,55.6,184.3,72"/>
		<path class="st0" d="M550.7,69.6c-4.8,5.1-9.4,10-14,14.8c-8.1,8.5-16.3,16.9-24.3,25.4c-2.3,2.4-5,3.6-8.3,3.5
			c-5.5-0.1-10.9-0.1-16.4-0.1c-1.8,0-3.4-0.5-3.8-2.2c-0.2-0.9,0.7-2.3,1.5-3.1c16.1-16.7,32.2-33.4,48.3-50.1
			c0.9-0.9,1.7-1.8,2.7-3c-3.5-3.7-7-7.3-10.4-10.9c-12-12-23.8-24.3-35.7-36.4c-1.2-1.2-1.8-2.4-1.2-4c0.7-1.8,2.2-1.4,3.6-1.4
			c6,0,12,0,18-0.1c5.3-0.1,4.1-0.8,7.6,3.1c8.1,8.5,16.1,17,24.2,25.5c2.3,2.5,4.7,4.9,7.1,7.4c20.6,21.3,41.3,42.5,61.9,63.8
			c2.3,2.4,4.4,5,6.7,7.4c1.5,1.6,1,2.5-0.7,3.2c-1,0.4-2,0.6-3.1,0.7c-5.7,0.1-11.5,0.1-17.2,0.3c-3.2,0.1-5.8-1-7.9-3.3
			c-9.7-10.1-19.5-20.3-29.2-30.5C557.1,76.5,554.1,73.3,550.7,69.6"/>
		<path class="st0" d="M470.2,57.7c0,16.9,0,33.9,0,50.8c0,3.4-1.4,4.8-4.9,4.8c-4.7,0-9.5,0-14.2,0c-3.7-0.1-4.9-1.1-5-4.8
			c-0.2-4.9,0-9.9,0-14.8c0-27.7-0.1-55.4-0.1-83.1c0-8.4,0-8.4,8.4-8.7C458,2,461.7,2,465.4,2c3.5,0,4.7,1.2,4.7,4.7
			c0,17,0,34.1,0,51.1C470.1,57.7,470.1,57.7,470.2,57.7"/>
		<path class="st1" d="M608.6,11.9c-7.7,7.9-15.6,15.7-23.4,23.5c-1.1,1.1-2,2.2-2.9,3.4c-1.1,1.4-2.2,1.7-3.6,0.4
			c-3.2-3-6.5-5.9-9.7-8.9c-0.5-0.5-1.3-1.1-1.9-1.7c-0.6-0.5-0.6-1.4,0-2c6.5-6.6,14-13.8,21-20.7c0.9-0.9,2.7-1.3,4-1.3h21.2
			c1.1,0,1.6,1.3,0.8,2L608.6,11.9z"/>
		<polygon class="st0" points="210.7,23.3 217.3,33.4 222.7,27.9 		"/>
	</g>
	<g>
		<path class="st0" d="M116,141.4h-8.2v-5.3h22.6v5.3h-8.2v22.7H116V141.4z"/>
		<path class="st0" d="M152.8,136.1H171v5.3h-12v5.6h10.2v5.3H159v6.4h12.4v5.3h-18.6L152.8,136.1L152.8,136.1z"/>
		<path class="st0" d="M193.6,150.2c0-9.3,5.7-14.7,13.1-14.7c3.5,0,6.3,1.7,8.2,3.6l-3.4,3.9c-1.3-1.2-2.8-2-4.8-2
			c-3.9,0-6.7,3.4-6.7,9c0,5.8,2.8,9.1,7,9.1c2,0,3.6-1,4.9-2.5l3.4,3.8c-2.2,2.7-5.3,4.1-9,4.1
			C199.5,164.6,193.6,159.7,193.6,150.2z"/>
		<path class="st0" d="M236.5,136.1h6.2v10.8h7.4v-10.8h6.2v28h-6.2v-11.7h-7.4v11.7h-6.2V136.1z"/>
		<path class="st0" d="M279,136.1h6.3l5.8,13.9l2.3,6.2h0.1c-0.3-3-0.9-6.9-0.9-10.2v-9.9h5.9v28h-6.3l-5.8-14l-2.3-6.1H284
			c0.3,3.1,0.9,6.9,0.9,10.1v9.9H279V136.1z"/>
		<path class="st0" d="M320.2,149.9c0-9.4,4.5-14.4,11-14.4s11,5,11,14.4c0,9.6-4.5,14.7-11,14.7
			C324.7,164.6,320.2,159.5,320.2,149.9z M335.9,149.9c0-5.8-1.8-8.9-4.7-8.9s-4.7,3.1-4.7,8.9c0,6,1.8,9.2,4.7,9.2
			S335.9,156,335.9,149.9z"/>
		<path class="st0" d="M363.3,150.2c0-9.3,5.7-14.7,13.1-14.7c3.5,0,6.3,1.7,8.2,3.6l-3.4,3.9c-1.3-1.2-2.8-2-4.8-2
			c-3.9,0-6.7,3.4-6.7,9c0,5.8,2.8,9.1,7,9.1c2,0,3.6-1,4.9-2.5l3.4,3.8c-2.2,2.7-5.3,4.1-9,4.1
			C369.2,164.6,363.3,159.7,363.3,150.2z"/>
		<path class="st0" d="M412.3,136.1h7.4l8.5,28h-6.6l-3.5-14.2c-0.7-2.8-1.5-6.1-2.2-9h-0.2c-0.7,3-1.4,6.2-2.1,9l-3.6,14.2h-6.3
			L412.3,136.1z M409.5,152.5h13.1v4.9h-13.1V152.5z"/>
		<path class="st0" d="M448,160.6l3.6-4.4c2.1,1.7,4.6,2.9,7.3,2.9c2.6,0,3.8-1,3.8-2.4c0-2-1.6-2.5-4.2-3.6l-3.6-1.6
			c-3-1.2-5.8-3.6-5.8-7.6c0-4.6,4.1-8.4,10-8.4c3.3,0,6.6,1.3,9.1,3.7l-3.1,4c-1.9-1.4-3.6-2.2-6.3-2.2c-2,0-3.4,0.9-3.4,2.5
			c0,1.7,1.8,2.3,4.5,3.3l3.3,1.5c3.6,1.4,5.8,3.7,5.8,7.6c0,4.7-3.8,8.7-10.6,8.7C454.7,164.6,450.9,163.2,448,160.6z"/>
		<path class="st0" d="M497.8,141.4h-8.2v-5.3h22.6v5.3H504v22.7h-6.2V141.4z"/>
	</g>
	<g>
		<path class="st1" d="M71.2,186.2h4.3V208h-3.4v-16.1l0.2,1l-3.6,12H66l-3.6-11.7l0.2-1.3V208h-3.5v-21.8h4.4l3.8,13.3L71.2,186.2z
			"/>
		<path class="st1" d="M79.2,186.2H83V208h-3.8V186.2z M80.7,186.2h10.2v3.8H80.7V186.2z M80.7,195.5h9v3.7h-9V195.5z"/>
		<path class="st1" d="M106,196v5.4c0,1.4-0.3,2.6-0.8,3.6s-1.3,1.8-2.3,2.4s-2.1,0.8-3.5,0.8c-1.3,0-2.5-0.3-3.5-0.8
			s-1.8-1.3-2.3-2.3s-0.8-2.1-0.8-3.4v-8.9c0-1.4,0.3-2.6,0.8-3.7c0.5-1,1.3-1.8,2.3-2.4s2.1-0.8,3.4-0.8s2.4,0.3,3.4,0.8
			s1.6,1.3,2.2,2.3s0.8,2.3,0.9,3.8h-4c0-0.6-0.2-1.2-0.4-1.6s-0.5-0.7-0.8-0.9s-0.8-0.3-1.2-0.3c-0.5,0-1,0.1-1.4,0.4
			c-0.4,0.2-0.7,0.6-0.9,1c-0.2,0.4-0.3,0.9-0.3,1.5v8.9c0,0.5,0.1,0.9,0.3,1.3s0.5,0.7,0.9,0.9s0.9,0.3,1.4,0.3s1-0.1,1.4-0.3
			s0.7-0.5,0.9-0.9c0.2-0.4,0.3-0.9,0.3-1.5v-1.7h-2.5V196H106z"/>
		<path class="st1" d="M108.7,204.1h3.8v3.9h-3.8V204.1z"/>
		<path class="st1" d="M126.2,200c-0.6,0.5-0.9,1.3-0.9,2.2c0,0.8,0.3,1.4,0.8,1.9c0.5,0.4,1.2,0.7,2.2,0.7c1,0,1.7-0.3,2.4-1
			c0.7-0.6,1.2-1.6,1.5-2.8s0.5-2.6,0.5-4.3h3.6c0,2.4-0.3,4.5-1,6.2s-1.7,3.1-3,4s-2.9,1.4-4.7,1.4c-1.3,0-2.3-0.2-3.2-0.7
			s-1.6-1.2-2-2.1c-0.5-0.9-0.7-2-0.7-3.3c0-1.7,0.5-3.1,1.5-4.1s2.4-1.6,4.2-1.8l1.2,2.9C127.6,199.2,126.8,199.4,126.2,200z
			 M126.7,199.3c-0.7-1-1.3-1.9-1.7-2.7s-0.8-1.6-1-2.5s-0.4-1.7-0.4-2.6c0-1.8,0.5-3.1,1.4-4.1s2.3-1.5,4-1.5s3.1,0.5,4,1.4
			s1.4,2.3,1.4,4v1.2h-3.8v-1.2c0-0.7-0.1-1.3-0.4-1.7c-0.3-0.4-0.7-0.6-1.2-0.6c-0.6,0-1,0.2-1.3,0.6s-0.5,1-0.5,1.8
			c0,0.6,0.1,1.2,0.3,1.9c0.2,0.7,0.5,1.3,0.9,2s0.9,1.5,1.5,2.2l7.7,10.3h-4.5L126.7,199.3z"/>
		<path class="st1" d="M150.8,208.2c0,0-0.5-0.2-1.4-0.5c-0.9-0.4-1.7-0.9-2.2-1.6s-1-1.6-1.3-2.7l3.6-1.6c0.3,0.9,0.7,1.5,1.3,2
			s1.3,0.7,2.1,0.7s1.5-0.2,2-0.6c0.5-0.4,0.7-0.9,0.7-1.6v-1c0-0.5-0.1-0.9-0.4-1.2c-0.3-0.3-0.6-0.6-1.1-0.8
			c-0.4-0.2-1-0.4-1.7-0.6h-0.1c0,0,0,0-0.1,0H152c-1.2-0.4-2.1-0.7-2.8-1.1s-1.4-1-1.9-1.8s-0.8-1.9-0.8-3.2V192
			c0-1.2,0.3-2.3,0.8-3.2s1.3-1.6,2.2-2.1s2.2-0.7,3.6-0.7c1.1,0,2,0.2,2.8,0.5s1.5,0.9,2,1.6s0.9,1.6,1.2,2.6l-3.4,1.6
			c-0.3-0.8-0.7-1.4-1.2-1.9s-1.1-0.6-1.7-0.6c-0.8,0-1.5,0.2-1.9,0.5c-0.4,0.4-0.7,0.8-0.7,1.5v0.7c0,0.5,0.1,1,0.4,1.3
			s0.7,0.6,1.1,0.8c0.4,0.2,1,0.4,1.8,0.7c0.1,0,0.1,0,0.2,0.1c0.1,0,0.1,0,0.2,0.1c0.1,0,0.1,0,0.1,0h0.1c1.1,0.3,1.9,0.7,2.6,1.1
			c0.7,0.4,1.3,1,1.8,1.7s0.7,1.8,0.7,3.1v0.9c0,1.3-0.3,2.3-0.8,3.2s-1.3,1.6-2.3,2.1s-2.2,0.7-3.6,0.7
			C151.4,208.2,150.8,208.2,150.8,208.2z"/>
		<path class="st1" d="M165.1,207.4c-1-0.5-1.7-1.3-2.2-2.3s-0.8-2.2-0.8-3.7v-15.2h3.8v15.3c0,0.9,0.2,1.6,0.7,2.1s1.1,0.7,1.9,0.7
			c0.8,0,1.5-0.2,1.9-0.7s0.7-1.2,0.7-2.1v-15.3h3.8v15.2c0,1.4-0.3,2.7-0.8,3.7s-1.2,1.8-2.2,2.3s-2.1,0.8-3.5,0.8
			S166.1,207.9,165.1,207.4z"/>
		<path class="st1" d="M178.4,186.2h3.8V208h-3.8V186.2z M180.2,195.7h5.3c0.4,0,0.7-0.1,1-0.3s0.5-0.4,0.7-0.8s0.2-0.7,0.2-1.2
			v-1.3c0-0.5-0.1-0.9-0.2-1.2c-0.2-0.3-0.4-0.6-0.7-0.8s-0.6-0.3-1-0.3h-5.3V186h5.3c1.2,0,2.2,0.2,3.1,0.7c0.9,0.5,1.6,1.1,2,2
			c0.5,0.9,0.7,1.9,0.7,3.1v1.9c0,1.2-0.2,2.2-0.7,3s-1.2,1.5-2,2s-1.9,0.7-3.1,0.7h-5.3V195.7z"/>
		<path class="st1" d="M194.3,186.2h3.8V208h-3.8V186.2z M196.1,195.7h5.3c0.4,0,0.7-0.1,1-0.3s0.5-0.4,0.7-0.8s0.2-0.7,0.2-1.2
			v-1.3c0-0.5-0.1-0.9-0.2-1.2c-0.2-0.3-0.4-0.6-0.7-0.8s-0.6-0.3-1-0.3h-5.3V186h5.3c1.2,0,2.2,0.2,3.1,0.7c0.9,0.5,1.6,1.1,2,2
			c0.5,0.9,0.7,1.9,0.7,3.1v1.9c0,1.2-0.2,2.2-0.7,3s-1.2,1.5-2,2s-1.9,0.7-3.1,0.7h-5.3V195.7z"/>
		<path class="st1" d="M210.2,186.2h3.8V208h-3.8V186.2z M211.9,204.2H222v3.8h-10.1V204.2z"/>
		<path class="st1" d="M227.9,208H224v-21.8h3.9V208z"/>
		<path class="st1" d="M231.3,186.2h3.8V208h-3.8V186.2z M232.8,186.2h10.3v3.8h-10.3V186.2z M232.8,195.2h9.2v3.8h-9.2V195.2z
			 M232.8,204.2h10.3v3.8h-10.3V204.2z"/>
		<path class="st1" d="M245.9,186.1h3.8V208h-3.8V186.1z M247.6,195.2h5.6c0.4,0,0.7-0.1,1-0.2s0.5-0.4,0.6-0.7s0.2-0.7,0.2-1V192
			c0-0.4-0.1-0.8-0.2-1.1c-0.1-0.3-0.3-0.6-0.6-0.7s-0.6-0.2-1-0.2h-5.6v-3.8h5.7c1.2,0,2.2,0.2,3,0.7c0.9,0.5,1.5,1.1,2,2
			s0.7,1.9,0.7,3.1v1.3c0,1.2-0.2,2.2-0.7,3.1c-0.5,0.9-1.1,1.5-2,2s-1.9,0.7-3,0.7h-5.7L247.6,195.2L247.6,195.2z M251.3,198.3
			l3.8-0.7l4.6,10.4h-4.4L251.3,198.3z"/>
		<path class="st1" d="M272.4,207.4c-1-0.5-1.8-1.3-2.3-2.3s-0.8-2.2-0.8-3.5v-9.1c0-1.3,0.3-2.5,0.8-3.5s1.3-1.7,2.3-2.3
			s2.2-0.8,3.5-0.8s2.5,0.3,3.5,0.8s1.8,1.3,2.3,2.3s0.8,2.2,0.8,3.5v9.1c0,1.3-0.3,2.5-0.8,3.5s-1.3,1.8-2.3,2.3s-2.2,0.8-3.5,0.8
			S273.4,207.9,272.4,207.4z M277.4,203.9c0.4-0.2,0.7-0.6,0.9-1s0.3-0.9,0.3-1.5v-8.7c0-0.6-0.1-1.1-0.3-1.5s-0.5-0.8-0.9-1
			s-0.9-0.4-1.4-0.4s-1,0.1-1.4,0.4c-0.4,0.2-0.7,0.6-0.9,1s-0.3,0.9-0.3,1.5v8.7c0,0.6,0.1,1.1,0.3,1.5s0.5,0.8,0.9,1
			s0.9,0.3,1.4,0.3S277,204.2,277.4,203.9z"/>
		<path class="st1" d="M286,186.2h3.8V208H286V186.2z M287.5,186.2h10.2v3.8h-10.2V186.2z M287.5,195.5h9v3.7h-9V195.5z"/>
		<path class="st1" d="M311,208.2c0,0-0.5-0.2-1.4-0.5c-0.9-0.4-1.7-0.9-2.2-1.6s-1-1.6-1.3-2.7l3.6-1.6c0.3,0.9,0.7,1.5,1.3,2
			c0.6,0.5,1.3,0.7,2.1,0.7c0.8,0,1.5-0.2,2-0.6c0.5-0.4,0.7-0.9,0.7-1.6v-1c0-0.5-0.1-0.9-0.4-1.2s-0.6-0.6-1.1-0.8
			c-0.4-0.2-1-0.4-1.7-0.6h-0.1c0,0,0,0-0.1,0h-0.2c-1.2-0.4-2.1-0.7-2.8-1.1s-1.4-1-1.9-1.8s-0.8-1.9-0.8-3.2V192
			c0-1.2,0.3-2.3,0.8-3.2s1.3-1.6,2.2-2.1s2.2-0.7,3.6-0.7c1.1,0,2,0.2,2.8,0.5s1.5,0.9,2,1.6s0.9,1.6,1.2,2.6l-3.4,1.6
			c-0.3-0.8-0.7-1.4-1.2-1.9s-1.1-0.6-1.7-0.6c-0.8,0-1.5,0.2-1.9,0.5c-0.4,0.4-0.7,0.8-0.7,1.5v0.7c0,0.5,0.1,1,0.4,1.3
			s0.7,0.6,1.1,0.8s1,0.4,1.8,0.7c0.1,0,0.1,0,0.2,0.1c0.1,0,0.1,0,0.2,0.1c0.1,0,0.1,0,0.1,0h0.1c1.1,0.3,1.9,0.7,2.6,1.1
			c0.7,0.4,1.3,1,1.8,1.7c0.5,0.8,0.7,1.8,0.7,3.1v0.9c0,1.3-0.3,2.3-0.8,3.2s-1.3,1.6-2.3,2.1s-2.2,0.7-3.6,0.7
			C311.6,208.2,311,208.2,311,208.2z"/>
		<path class="st1" d="M327.7,186.2h2.5l6.6,21.8h-4l-3.9-14.6L325,208h-4L327.7,186.2z M324.8,200.8h8.5v3.7h-8.5V200.8z"/>
		<path class="st1" d="M339,186.2h3.9l6.5,15.6l-0.4,0.5v-16.1h3.6V208h-3.9l-6.4-15.1l0.4-0.5V208H339V186.2z"/>
		<path class="st1" d="M356.2,186.2h3.8V208h-3.8V186.2z M358.4,204.2h3.9c0.9,0,1.6-0.2,2.1-0.7s0.7-1.2,0.7-2v-8.8
			c0-0.9-0.2-1.6-0.7-2c-0.5-0.5-1.2-0.7-2.1-0.7h-3.9v-3.8h4c1.4,0,2.6,0.2,3.6,0.7s1.7,1.2,2.3,2.2c0.5,1,0.8,2.1,0.8,3.4v9.1
			c0,1.3-0.3,2.4-0.8,3.4s-1.3,1.7-2.2,2.2c-1,0.5-2.2,0.8-3.6,0.8h-4L358.4,204.2L358.4,204.2z"/>
		<path class="st1" d="M383.7,208.2c0,0-0.5-0.3-1.4-0.8s-1.7-1.3-2.2-2.3s-0.8-2.3-0.8-3.7v-8.6c0-1.4,0.3-2.7,0.8-3.7
			s1.2-1.8,2.2-2.3s2.1-0.8,3.5-0.8c1.3,0,2.4,0.3,3.4,0.8s1.6,1.4,2.1,2.5s0.8,2.5,0.9,4.2h-3.9c-0.1-0.8-0.2-1.4-0.4-2
			c-0.2-0.5-0.5-0.9-0.8-1.1s-0.8-0.4-1.2-0.4c-0.5,0-1,0.1-1.3,0.3c-0.4,0.2-0.7,0.6-0.9,1c-0.2,0.4-0.3,1-0.3,1.6v8.6
			c0,0.6,0.1,1.1,0.3,1.6c0.2,0.4,0.5,0.8,0.9,1s0.8,0.3,1.3,0.3s0.9-0.1,1.2-0.4s0.6-0.6,0.8-1.1s0.3-1.2,0.4-2h3.9
			c-0.1,1.7-0.4,3.1-0.9,4.2s-1.2,1.9-2.1,2.5s-2,0.8-3.3,0.8C384.4,208.2,383.7,208.2,383.7,208.2z"/>
		<path class="st1" d="M400.2,186.2h2.5l6.6,21.8h-4l-3.9-14.6l-3.9,14.6h-4L400.2,186.2z M397.2,200.8h8.5v3.7h-8.5V200.8z"/>
		<path class="st1" d="M415.5,208.2c0,0-0.5-0.2-1.4-0.5c-0.9-0.4-1.7-0.9-2.2-1.6s-1-1.6-1.3-2.7l3.6-1.6c0.3,0.9,0.7,1.5,1.3,2
			c0.6,0.5,1.3,0.7,2.1,0.7c0.8,0,1.5-0.2,2-0.6c0.5-0.4,0.7-0.9,0.7-1.6v-1c0-0.5-0.1-0.9-0.4-1.2s-0.6-0.6-1.1-0.8
			c-0.4-0.2-1-0.4-1.7-0.6H417c0,0,0,0-0.1,0h-0.2c-1.2-0.4-2.1-0.7-2.8-1.1s-1.4-1-1.9-1.8s-0.8-1.9-0.8-3.2V192
			c0-1.2,0.3-2.3,0.8-3.2s1.3-1.6,2.2-2.1s2.2-0.7,3.6-0.7c1.1,0,2,0.2,2.8,0.5s1.5,0.9,2,1.6s0.9,1.6,1.2,2.6l-3.4,1.6
			c-0.3-0.8-0.7-1.4-1.2-1.9s-1.1-0.6-1.7-0.6c-0.8,0-1.5,0.2-1.9,0.5c-0.4,0.4-0.7,0.8-0.7,1.5v0.7c0,0.5,0.1,1,0.4,1.3
			s0.7,0.6,1.1,0.8s1,0.4,1.8,0.7c0.1,0,0.1,0,0.2,0.1c0.1,0,0.1,0,0.2,0.1c0.1,0,0.1,0,0.1,0h0.1c1.1,0.3,1.9,0.7,2.6,1.1
			c0.7,0.4,1.3,1,1.8,1.7c0.5,0.8,0.7,1.8,0.7,3.1v0.9c0,1.3-0.3,2.3-0.8,3.2s-1.3,1.6-2.3,2.1s-2.2,0.7-3.6,0.7
			C416.1,208.2,415.5,208.2,415.5,208.2z"/>
		<path class="st1" d="M424.9,186.2H438v3.8h-13.1V186.2z M429.6,188h3.8v20h-3.8V188z"/>
		<path class="st1" d="M443.1,208h-3.9v-21.8h3.9V208z"/>
		<path class="st1" d="M446.5,186.2h3.9l6.5,15.6l-0.4,0.5v-16.1h3.6V208h-3.9l-6.4-15.1l0.4-0.5V208h-3.6v-21.8H446.5z"/>
		<path class="st1" d="M476.6,196v5.4c0,1.4-0.3,2.6-0.8,3.6s-1.3,1.8-2.3,2.4c-1,0.5-2.1,0.8-3.4,0.8s-2.5-0.3-3.5-0.8
			s-1.8-1.3-2.3-2.3s-0.8-2.1-0.8-3.4v-8.9c0-1.4,0.3-2.6,0.8-3.7c0.5-1,1.3-1.8,2.3-2.4c1-0.6,2.1-0.8,3.4-0.8s2.4,0.3,3.4,0.8
			s1.6,1.3,2.2,2.3s0.8,2.3,0.9,3.8h-4c0-0.6-0.2-1.2-0.4-1.6s-0.5-0.7-0.8-0.9s-0.8-0.3-1.2-0.3c-0.5,0-1,0.1-1.4,0.4
			c-0.4,0.2-0.7,0.6-0.9,1c-0.2,0.4-0.3,0.9-0.3,1.5v8.9c0,0.5,0.1,0.9,0.3,1.3s0.5,0.7,0.9,0.9s0.9,0.3,1.4,0.3s1-0.1,1.4-0.3
			s0.7-0.5,0.9-0.9c0.2-0.4,0.3-0.9,0.3-1.5v-1.7h-2.5V196H476.6z"/>
		<path class="st1" d="M487.1,186.2h3.8V208h-3.8V186.2z M488.8,195.7h5.3c0.4,0,0.7-0.1,1-0.3s0.5-0.4,0.7-0.8
			c0.2-0.3,0.2-0.7,0.2-1.2v-1.3c0-0.5-0.1-0.9-0.2-1.2c-0.2-0.3-0.4-0.6-0.7-0.8s-0.6-0.3-1-0.3h-5.3V186h5.3
			c1.2,0,2.2,0.2,3.1,0.7s1.6,1.1,2,2c0.5,0.9,0.7,1.9,0.7,3.1v1.9c0,1.2-0.2,2.2-0.7,3c-0.5,0.9-1.2,1.5-2,2s-1.9,0.7-3.1,0.7h-5.3
			V195.7z"/>
		<path class="st1" d="M508,186.2h2.5l6.6,21.8h-4l-3.9-14.6l-3.9,14.6h-4L508,186.2z M505.1,200.8h8.5v3.7h-8.5L505.1,200.8
			L505.1,200.8z"/>
		<path class="st1" d="M519.3,186.1h3.8V208h-3.8V186.1z M520.9,195.2h5.6c0.4,0,0.7-0.1,1-0.2s0.5-0.4,0.6-0.7s0.2-0.7,0.2-1V192
			c0-0.4-0.1-0.8-0.2-1.1c-0.1-0.3-0.3-0.6-0.6-0.7s-0.6-0.2-1-0.2h-5.6v-3.8h5.7c1.2,0,2.2,0.2,3,0.7c0.9,0.5,1.5,1.1,2,2
			s0.7,1.9,0.7,3.1v1.3c0,1.2-0.2,2.2-0.7,3.1c-0.5,0.9-1.1,1.5-2,2s-1.9,0.7-3,0.7h-5.7V195.2z M524.6,198.3l3.8-0.7L533,208h-4.4
			L524.6,198.3z"/>
		<path class="st1" d="M533.7,186.2h13.1v3.8h-13.1V186.2z M538.3,188h3.8v20h-3.8V188z"/>
		<path class="st1" d="M552.3,208.2c0,0-0.5-0.2-1.4-0.5c-0.9-0.4-1.7-0.9-2.2-1.6s-1-1.6-1.3-2.7l3.6-1.6c0.3,0.9,0.7,1.5,1.3,2
			s1.3,0.7,2.1,0.7s1.5-0.2,2-0.6c0.5-0.4,0.7-0.9,0.7-1.6v-1c0-0.5-0.1-0.9-0.4-1.2c-0.3-0.3-0.6-0.6-1.1-0.8
			c-0.4-0.2-1-0.4-1.7-0.6h-0.1c0,0,0,0-0.1,0h-0.2c-1.2-0.4-2.1-0.7-2.8-1.1s-1.4-1-1.9-1.8s-0.8-1.9-0.8-3.2V192
			c0-1.2,0.3-2.3,0.8-3.2s1.3-1.6,2.2-2.1s2.2-0.7,3.6-0.7c1.1,0,2,0.2,2.8,0.5s1.5,0.9,2,1.6s0.9,1.6,1.2,2.6l-3.4,1.6
			c-0.3-0.8-0.7-1.4-1.2-1.9s-1.1-0.6-1.7-0.6c-0.8,0-1.5,0.2-1.9,0.5c-0.4,0.4-0.7,0.8-0.7,1.5v0.7c0,0.5,0.1,1,0.4,1.3
			s0.7,0.6,1.1,0.8c0.4,0.2,1,0.4,1.8,0.7c0.1,0,0.1,0,0.2,0.1c0.1,0,0.1,0,0.2,0.1c0.1,0,0.1,0,0.1,0h0.1c1.1,0.3,1.9,0.7,2.6,1.1
			c0.7,0.4,1.3,1,1.8,1.7c0.5,0.8,0.7,1.8,0.7,3.1v0.9c0,1.3-0.3,2.3-0.8,3.2s-1.3,1.6-2.3,2.1s-2.2,0.7-3.6,0.7
			C552.9,208.2,552.3,208.2,552.3,208.2z"/>
	</g>
</g>
</svg>
