<?xml version="1.0" encoding="utf-8"?>
<!-- Generator: Adobe Illustrator 23.0.2, SVG Export Plug-In . SVG Version: 6.00 Build 0)  -->
<svg version="1.1" id="Layer_1" xmlns="http://www.w3.org/2000/svg" xmlns:xlink="http://www.w3.org/1999/xlink" x="0px" y="0px"
	 viewBox="0 0 250 100" style="enable-background:new 0 0 250 100;" xml:space="preserve">
<style type="text/css">
	.st0{fill:#FFFFFF;}
	.st1{fill:#F7AC06;}
</style>
<g>
	<g>
		<path class="st0" d="M120.5,17.5c0-2.5,0-4.7,0-7c0-0.9,1.4-1.8,2.5-1.8c6.8,0,13.7-0.1,20.5,0c4,0,8,0.1,12,0.3
			c3.6,0.2,7.2,0.8,10.3,3.1c3.3,2.5,5.3,5.7,5.5,9.9c0.3,5,0.4,10,0.4,15c0,2.4-0.4,4.8-1.2,7c-1.3,3.5-3.7,6-7.2,7.6
			c-2.9,1.2-5.9,1.5-8.9,1.6c-4.3,0.2-8.7,0.1-13,0.2c-5.9,0-11.8,0-17.7,0c-0.8,0-1.6-0.2-2.3-0.5c-0.3-0.1-0.6-0.6-0.6-1
			c-0.1-0.9-0.2-1.8-0.2-2.8c0-7.4,0-14.8,0-22.3c0-1,0.2-1.3,1.2-1.2c2.6,0.1,5.1,0,7.7,0c0.8,0,1,0.2,1,1c0,3.5,0,7,0,10.5
			c0,1.9,0,3.9,0.1,5.8c0,1.7,0.1,1.7,1.8,1.7c4.9,0,9.8,0,14.7-0.1c2.3,0,4.6,0,6.9-0.1c2.5-0.1,4.9-0.7,6.6-2.9
			c1-1.4,1.3-3,1.4-4.7c0.4-4.5,0.5-9.1-0.3-13.6c-0.5-2.7-2.7-4.9-5.8-5.2c-11.1-0.8-22.3-0.1-33.4-0.4
			C121.7,17.4,121.2,17.5,120.5,17.5"/>
		<path class="st0" d="M10.7,39.3c0,1.4,0,2.8,0,4.1c0,2.6,0.1,5.3,0.1,7.9c0,1.3-0.6,1.9-1.9,1.9c-2,0-4,0-5.9,0
			c-1.6,0-2.2-0.7-2.2-2.3c0-6.1,0-12.2,0-18.2c0-0.9,0.3-1.2,1.2-1.2c2.4,0,4.8-0.1,7.2-0.1c8.4,0,16.8,0,25.3,0
			c1.2,0,2.5-0.2,3.6-0.5c1.2-0.3,2-1.2,2.2-2.3c0.4-1.9,0.5-3.8,0.6-5.7c0-0.8-0.3-1.7-0.5-2.6c-0.4-1.5-2.1-2.7-3.9-2.7
			c-2.5,0-5,0-7.4,0c-8.8,0-17.6,0-26.5,0c-1.8,0-1.8,0-1.8-1.8c0-1.5,0-3,0-4.5c0-1.4,0.8-2.3,2.2-2.4c0.8-0.1,1.7-0.1,2.6-0.1
			c9.9,0,19.8-0.1,29.7,0c2.7,0,5.4,0.4,8,1c3.8,1,6.1,3.7,7,7.6c0.8,3.5,0.8,7.1,0.4,10.6c-0.4,3.7-1.7,7.1-5.5,8.9
			c-1.2,0.6-2.4,0.9-3.8,1.5c1.3,1.6,2.5,3.1,3.7,4.7c2.3,2.9,4.6,5.7,6.8,8.6c0.6,0.8,0.2,1.7-0.8,1.7c-2.7,0-5.5,0.1-8.2,0
			c-0.7,0-1.6-0.6-2-1.2c-3.1-4-6.2-8.2-9.2-12.2c-0.2-0.3-0.7-0.6-1-0.6c-6.4,0-12.8,0-19.2,0C11.2,39,11,39.2,10.7,39.3"/>
		<path class="st0" d="M115.6,52.8c-0.9,0.2-1.6,0.4-2.4,0.4c-1.9,0-3.9,0-5.8,0c-1.4,0-2.4-0.6-3.1-1.9c-1-2.1-2.3-4.1-3.4-6.2
			c-0.5-0.8-1.1-1.2-2.2-1.2c-9.1,0-18.2,0-27.3,0c-1,0-1.2,0.6-1.6,1.2c-1.1,2.1-2.3,4.2-3.3,6.4c-0.6,1.1-1.4,1.8-2.7,1.7
			c-2.4,0-4.8,0-7.2,0c-1.2,0-1.5-0.3-1-1.4c0.9-2,1.9-3.9,2.9-5.7C64.2,35.4,70,24.8,75.8,14.3c0.5-0.9,1.1-1.8,1.7-2.7
			c1-1.6,2.6-2.7,4.5-2.9c2.9-0.4,5.7-0.6,8.4,0.9c1.7,0.9,2.8,2.4,3.7,3.9c2.4,4.1,4.6,8.3,6.9,12.5c4.4,8,8.8,16,13.1,23.9
			C114.6,50.8,115,51.7,115.6,52.8 M74.5,36.7h21.7c-0.3-0.7-0.5-1.2-0.8-1.7c-2.7-4.9-5.3-9.8-8.1-14.7c-0.6-1-0.5-2.7-2.2-3.2
			C81.7,23.3,78.1,30,74.5,36.7"/>
		<path class="st0" d="M221.8,35.7c-1.9,2.1-3.8,4-5.6,5.9c-3.3,3.4-6.6,6.8-9.8,10.2c-0.9,1-2,1.4-3.3,1.4c-2.2,0-4.4,0-6.6,0
			c-0.7,0-1.4-0.2-1.5-0.9c-0.1-0.4,0.3-0.9,0.6-1.2c6.5-6.7,12.9-13.4,19.4-20.1c0.4-0.4,0.7-0.7,1.1-1.2c-1.4-1.5-2.8-2.9-4.2-4.4
			c-4.8-4.8-9.6-9.8-14.4-14.6c-0.5-0.5-0.7-1-0.5-1.6c0.3-0.7,0.9-0.6,1.4-0.6c2.4,0,4.8,0,7.2,0c2.1,0,1.6-0.3,3.1,1.2
			c3.3,3.4,6.5,6.8,9.7,10.3c0.9,1,1.9,2,2.9,3c8.3,8.6,16.6,17.1,24.9,25.6c0.9,1,1.8,2,2.7,3c0.6,0.6,0.4,1-0.3,1.3
			c-0.4,0.2-0.8,0.2-1.2,0.3c-2.3,0-4.6,0-6.9,0.1c-1.3,0-2.3-0.4-3.2-1.3c-3.9-4.1-7.8-8.2-11.7-12.3
			C224.3,38.4,223.1,37.2,221.8,35.7"/>
		<path class="st0" d="M189.4,30.8c0,6.8,0,13.6,0,20.4c0,1.4-0.6,1.9-2,1.9c-1.9,0-3.8,0-5.7,0c-1.5,0-2-0.4-2-1.9
			c-0.1-2,0-4,0-5.9c0-11.1,0-22.3,0-33.4c0-3.4,0-3.4,3.4-3.5c1.4,0,2.9,0,4.4,0c1.4,0,1.9,0.5,1.9,1.9
			C189.4,17.2,189.4,24,189.4,30.8L189.4,30.8"/>
		<path class="st1" d="M245,12.4c-3.1,3.2-6.3,6.3-9.4,9.4c-0.4,0.4-0.8,0.9-1.2,1.4c-0.4,0.6-0.9,0.7-1.4,0.2
			c-1.3-1.2-2.6-2.4-3.9-3.6c-0.2-0.2-0.5-0.4-0.8-0.7c-0.2-0.2-0.2-0.6,0-0.8c2.6-2.7,5.6-5.5,8.4-8.3c0.4-0.4,1.1-0.5,1.6-0.5h8.5
			c0.4,0,0.6,0.5,0.3,0.8L245,12.4z"/>
		<polygon class="st0" points="85.1,17 87.7,21.1 89.9,18.9 		"/>
	</g>
	<g>
		<path class="st0" d="M47,64.5h-3.3v-2.1h9.1v2.1h-3.3v9.1H47V64.5z"/>
		<path class="st0" d="M61.8,62.4h7.3v2.1h-4.8v2.3h4.1v2.1h-4.1v2.6h5v2.1h-7.5L61.8,62.4L61.8,62.4z"/>
		<path class="st0" d="M78.2,68c0-3.7,2.3-5.9,5.3-5.9c1.4,0,2.5,0.7,3.3,1.4l-1.4,1.6c-0.5-0.5-1.1-0.8-1.9-0.8
			c-1.6,0-2.7,1.4-2.7,3.6c0,2.3,1.1,3.7,2.8,3.7c0.8,0,1.4-0.4,2-1l1.4,1.5c-0.9,1.1-2.1,1.6-3.6,1.6C80.6,73.8,78.2,71.8,78.2,68z
			"/>
		<path class="st0" d="M95.5,62.4H98v4.3h3v-4.3h2.5v11.3H101v-4.8h-3v4.7h-2.5V62.4z"/>
		<path class="st0" d="M112.5,62.4h2.5l2.3,5.6l0.9,2.5l0,0c-0.1-1.2-0.4-2.8-0.4-4.1v-4h2.4v11.3h-2.5l-2.3-5.6l-0.9-2.5l0,0
			c0.1,1.2,0.4,2.8,0.4,4.1v4h-2.4V62.4z"/>
		<path class="st0" d="M129.1,67.9c0-3.8,1.8-5.8,4.4-5.8c2.6,0,4.4,2,4.4,5.8c0,3.9-1.8,5.9-4.4,5.9
			C130.9,73.8,129.1,71.8,129.1,67.9z M135.4,67.9c0-2.3-0.7-3.6-1.9-3.6s-1.9,1.2-1.9,3.6s0.7,3.7,1.9,3.7S135.4,70.4,135.4,67.9z"
			/>
		<path class="st0" d="M146.4,68c0-3.7,2.3-5.9,5.3-5.9c1.4,0,2.5,0.7,3.3,1.4l-1.4,1.6c-0.5-0.5-1.1-0.8-1.9-0.8
			c-1.6,0-2.7,1.4-2.7,3.6c0,2.3,1.1,3.7,2.8,3.7c0.8,0,1.4-0.4,2-1l1.4,1.5c-0.9,1.1-2.1,1.6-3.6,1.6
			C148.8,73.8,146.4,71.8,146.4,68z"/>
		<path class="st0" d="M166.1,62.4h3l3.4,11.3h-2.7l-1.4-5.7c-0.3-1.1-0.6-2.5-0.9-3.6h-0.1c-0.3,1.2-0.6,2.5-0.8,3.6l-1.4,5.7h-2.5
			L166.1,62.4z M165,68.9h5.3v2H165V68.9z"/>
		<path class="st0" d="M180.5,72.3l1.4-1.8c0.8,0.7,1.8,1.2,2.9,1.2c1,0,1.5-0.4,1.5-1c0-0.8-0.6-1-1.7-1.4l-1.4-0.6
			c-1.2-0.5-2.3-1.4-2.3-3.1c0-1.8,1.6-3.4,4-3.4c1.3,0,2.7,0.5,3.7,1.5l-1.2,1.6c-0.8-0.6-1.4-0.9-2.5-0.9c-0.8,0-1.4,0.4-1.4,1
			c0,0.7,0.7,0.9,1.8,1.3l1.3,0.6c1.4,0.6,2.3,1.5,2.3,3.1c0,1.9-1.5,3.5-4.3,3.5C183.2,73.8,181.6,73.3,180.5,72.3z"/>
		<path class="st0" d="M200.5,64.5h-3.3v-2.1h9.1v2.1H203v9.1h-2.5V64.5z"/>
	</g>
	<g>
		<path class="st1" d="M29,82.5h1.7v8.8h-1.4v-6.5l0.1,0.4L28,90h-1.1l-1.4-4.7l0.1-0.5v6.5h-1.4v-8.8H26l1.5,5.3L29,82.5z"/>
		<path class="st1" d="M32.2,82.5h1.5v8.8h-1.5V82.5z M32.8,82.5h4.1V84h-4.1V82.5z M32.8,86.3h3.6v1.5h-3.6V86.3z"/>
		<path class="st1" d="M43,86.4v2.2c0,0.6-0.1,1-0.3,1.4s-0.5,0.7-0.9,1c-0.4,0.2-0.8,0.3-1.4,0.3c-0.5,0-1-0.1-1.4-0.3
			c-0.4-0.2-0.7-0.5-0.9-0.9s-0.3-0.8-0.3-1.4v-3.6c0-0.6,0.1-1,0.3-1.5c0.2-0.4,0.5-0.7,0.9-1c0.4-0.2,0.8-0.3,1.4-0.3
			s1,0.1,1.4,0.3c0.4,0.2,0.6,0.5,0.9,0.9c0.2,0.4,0.3,0.9,0.4,1.5h-1.6c0-0.2-0.1-0.5-0.2-0.6c-0.1-0.2-0.2-0.3-0.3-0.4
			s-0.3-0.1-0.5-0.1s-0.4,0-0.6,0.2c-0.2,0.1-0.3,0.2-0.4,0.4c-0.1,0.2-0.1,0.4-0.1,0.6v3.6c0,0.2,0,0.4,0.1,0.5
			c0.1,0.2,0.2,0.3,0.4,0.4s0.4,0.1,0.6,0.1s0.4,0,0.6-0.1c0.2-0.1,0.3-0.2,0.4-0.4c0.1-0.2,0.1-0.4,0.1-0.6v-0.7h-1v-1.6L43,86.4
			L43,86.4z"/>
		<path class="st1" d="M44.1,89.8h1.5v1.6h-1.5V89.8z"/>
		<path class="st1" d="M51.1,88c-0.2,0.2-0.4,0.5-0.4,0.9c0,0.3,0.1,0.6,0.3,0.8c0.2,0.2,0.5,0.3,0.9,0.3s0.7-0.1,1-0.4
			c0.3-0.2,0.5-0.6,0.6-1.1s0.2-1,0.2-1.7h1.4c0,1-0.1,1.8-0.4,2.5c-0.3,0.7-0.7,1.2-1.2,1.6s-1.2,0.6-1.9,0.6
			c-0.5,0-0.9-0.1-1.3-0.3c-0.4-0.2-0.6-0.5-0.8-0.8c-0.2-0.4-0.3-0.8-0.3-1.3c0-0.7,0.2-1.2,0.6-1.6s1-0.6,1.7-0.7L52,88
			C51.7,87.8,51.4,87.8,51.1,88z M51.3,87.8c-0.3-0.4-0.5-0.8-0.7-1.1c-0.2-0.3-0.3-0.6-0.4-1c-0.1-0.4-0.2-0.7-0.2-1
			c0-0.7,0.2-1.2,0.6-1.6s0.9-0.6,1.6-0.6c0.7,0,1.2,0.2,1.6,0.6c0.4,0.4,0.6,0.9,0.6,1.6v0.5h-1.5v-0.5c0-0.3,0-0.5-0.2-0.7
			c-0.1-0.2-0.3-0.2-0.5-0.2s-0.4,0.1-0.5,0.2c-0.1,0.2-0.2,0.4-0.2,0.7c0,0.2,0,0.5,0.1,0.8s0.2,0.5,0.4,0.8s0.4,0.6,0.6,0.9
			l3.1,4.1h-1.8L51.3,87.8z"/>
		<path class="st1" d="M61,91.3c0,0-0.2-0.1-0.6-0.2c-0.4-0.2-0.7-0.4-0.9-0.6c-0.2-0.3-0.4-0.6-0.5-1.1l1.4-0.6
			c0.1,0.4,0.3,0.6,0.5,0.8s0.5,0.3,0.8,0.3s0.6-0.1,0.8-0.2c0.2-0.2,0.3-0.4,0.3-0.6v-0.4c0-0.2,0-0.4-0.2-0.5
			c-0.1-0.1-0.2-0.2-0.4-0.3c-0.2-0.1-0.4-0.2-0.7-0.2l0,0l0,0h-0.1c-0.5-0.2-0.8-0.3-1.1-0.4c-0.3-0.2-0.6-0.4-0.8-0.7
			c-0.2-0.3-0.3-0.8-0.3-1.3v-0.2c0-0.5,0.1-0.9,0.3-1.3s0.5-0.6,0.9-0.8s0.9-0.3,1.4-0.3c0.4,0,0.8,0.1,1.1,0.2s0.6,0.4,0.8,0.6
			c0.2,0.3,0.4,0.6,0.5,1L63,84.9c-0.1-0.3-0.3-0.6-0.5-0.8s-0.4-0.2-0.7-0.2S61.2,84,61,84.1c-0.2,0.2-0.3,0.3-0.3,0.6V85
			c0,0.2,0,0.4,0.2,0.5c0.1,0.1,0.3,0.2,0.4,0.3c0.2,0.1,0.4,0.2,0.7,0.3c0,0,0,0,0.1,0c0,0,0,0,0.1,0l0,0l0,0
			c0.4,0.1,0.8,0.3,1,0.4c0.3,0.2,0.5,0.4,0.7,0.7c0.2,0.3,0.3,0.7,0.3,1.2v0.4c0,0.5-0.1,0.9-0.3,1.3c-0.2,0.4-0.5,0.6-0.9,0.8
			c-0.4,0.2-0.9,0.3-1.4,0.3C61.2,91.3,61,91.3,61,91.3z"/>
		<path class="st1" d="M66.8,91c-0.4-0.2-0.7-0.5-0.9-0.9c-0.2-0.4-0.3-0.9-0.3-1.5v-6.1h1.5v6.2c0,0.4,0.1,0.6,0.3,0.8
			c0.2,0.2,0.4,0.3,0.8,0.3s0.6-0.1,0.8-0.3c0.2-0.2,0.3-0.5,0.3-0.8v-6.2h1.5v6.1c0,0.6-0.1,1.1-0.3,1.5S70,90.8,69.6,91
			c-0.4,0.2-0.8,0.3-1.4,0.3C67.5,91.3,67.2,91.3,66.8,91z"/>
		<path class="st1" d="M72.1,82.5h1.5v8.8h-1.5V82.5z M72.8,86.3H75c0.2,0,0.3,0,0.4-0.1s0.2-0.2,0.3-0.3c0.1-0.2,0.1-0.3,0.1-0.5
			v-0.5c0-0.2,0-0.4-0.1-0.5s-0.2-0.2-0.3-0.3c-0.2-0.1-0.3-0.2-0.4-0.2h-2.1v-1.5H75c0.5,0,0.9,0.1,1.2,0.3s0.6,0.4,0.8,0.8
			c0.2,0.4,0.3,0.8,0.3,1.2v0.8c0,0.5-0.1,0.9-0.3,1.2c-0.2,0.3-0.5,0.6-0.8,0.8s-0.8,0.3-1.2,0.3h-2.1L72.8,86.3L72.8,86.3z"/>
		<path class="st1" d="M78.5,82.5H80v8.8h-1.5V82.5z M79.2,86.3h2.1c0.2,0,0.3,0,0.4-0.1s0.2-0.2,0.3-0.3c0.1-0.2,0.1-0.3,0.1-0.5
			v-0.5c0-0.2,0-0.4-0.1-0.5s-0.2-0.2-0.3-0.3C81.6,84,81.5,84,81.3,84h-2.1v-1.5h2.1c0.5,0,0.9,0.1,1.2,0.3s0.6,0.4,0.8,0.8
			c0.2,0.4,0.3,0.8,0.3,1.2v0.8c0,0.5-0.1,0.9-0.3,1.2c-0.2,0.3-0.5,0.6-0.8,0.8S81.7,88,81.3,88h-2.1V86.3z"/>
		<path class="st1" d="M84.9,82.5h1.5v8.8h-1.5V82.5z M85.6,89.8h4.1v1.5h-4.1V89.8z"/>
		<path class="st1" d="M92,91.3h-1.6v-8.8H92V91.3z"/>
		<path class="st1" d="M93.4,82.5h1.5v8.8h-1.5V82.5z M94,82.5h4.1V84H94V82.5z M94,86.1h3.7v1.5H94V86.1z M94,89.8h4.1v1.5H94V89.8
			z"/>
		<path class="st1" d="M99.2,82.5h1.5v8.8h-1.5V82.5z M99.9,86.1h2.3c0.2,0,0.3,0,0.4-0.1c0.1,0,0.2-0.2,0.2-0.3
			c0-0.1,0.1-0.3,0.1-0.4v-0.5c0-0.2,0-0.3-0.1-0.4c0-0.1-0.1-0.2-0.2-0.3c-0.1,0-0.2-0.1-0.4-0.1h-2.3v-1.5h2.3
			c0.5,0,0.9,0.1,1.2,0.3c0.4,0.2,0.6,0.4,0.8,0.8c0.2,0.4,0.3,0.8,0.3,1.2v0.5c0,0.5-0.1,0.9-0.3,1.2c-0.2,0.4-0.4,0.6-0.8,0.8
			c-0.4,0.2-0.8,0.3-1.2,0.3h-2.3V86.1L99.9,86.1z M101.4,87.4l1.5-0.3l1.8,4.2H103L101.4,87.4z"/>
		<path class="st1" d="M109.9,91c-0.4-0.2-0.7-0.5-0.9-0.9c-0.2-0.4-0.3-0.9-0.3-1.4V85c0-0.5,0.1-1,0.3-1.4
			c0.2-0.4,0.5-0.7,0.9-0.9c0.4-0.2,0.9-0.3,1.4-0.3s1,0.1,1.4,0.3s0.7,0.5,0.9,0.9c0.2,0.4,0.3,0.9,0.3,1.4v3.7
			c0,0.5-0.1,1-0.3,1.4s-0.5,0.7-0.9,0.9s-0.9,0.3-1.4,0.3S110.3,91.3,109.9,91z M111.9,89.6c0.2-0.1,0.3-0.2,0.4-0.4
			c0.1-0.2,0.1-0.4,0.1-0.6v-3.5c0-0.2,0-0.4-0.1-0.6s-0.2-0.3-0.4-0.4c-0.2-0.1-0.4-0.2-0.6-0.2s-0.4,0-0.6,0.2
			c-0.2,0.1-0.3,0.2-0.4,0.4c-0.1,0.2-0.1,0.4-0.1,0.6v3.5c0,0.2,0,0.4,0.1,0.6s0.2,0.3,0.4,0.4s0.4,0.1,0.6,0.1
			S111.7,89.8,111.9,89.6z"/>
		<path class="st1" d="M115.4,82.5h1.5v8.8h-1.5V82.5z M116,82.5h4.1V84H116V82.5z M116,86.3h3.6v1.5H116V86.3z"/>
		<path class="st1" d="M125.4,91.3c0,0-0.2-0.1-0.6-0.2c-0.4-0.2-0.7-0.4-0.9-0.6s-0.4-0.6-0.5-1.1l1.4-0.6c0.1,0.4,0.3,0.6,0.5,0.8
			c0.2,0.2,0.5,0.3,0.8,0.3s0.6-0.1,0.8-0.2c0.2-0.2,0.3-0.4,0.3-0.6v-0.4c0-0.2,0-0.4-0.2-0.5c-0.1-0.1-0.2-0.2-0.4-0.3
			c-0.2-0.1-0.4-0.2-0.7-0.2l0,0l0,0h-0.1c-0.5-0.2-0.8-0.3-1.1-0.4c-0.3-0.2-0.6-0.4-0.8-0.7s-0.3-0.8-0.3-1.3v-0.2
			c0-0.5,0.1-0.9,0.3-1.3c0.2-0.4,0.5-0.6,0.9-0.8c0.4-0.2,0.9-0.3,1.4-0.3c0.4,0,0.8,0.1,1.1,0.2c0.3,0.1,0.6,0.4,0.8,0.6
			c0.2,0.2,0.4,0.6,0.5,1l-1.4,0.6c-0.1-0.3-0.3-0.6-0.5-0.8s-0.4-0.2-0.7-0.2c-0.3,0-0.6,0.1-0.8,0.2c-0.2,0.2-0.3,0.3-0.3,0.6v0.3
			c0,0.2,0,0.4,0.2,0.5c0.1,0.1,0.3,0.2,0.4,0.3c0.2,0.1,0.4,0.2,0.7,0.3c0,0,0,0,0.1,0c0,0,0,0,0.1,0l0,0l0,0
			c0.4,0.1,0.8,0.3,1,0.4s0.5,0.4,0.7,0.7c0.2,0.3,0.3,0.7,0.3,1.2v0.4c0,0.5-0.1,0.9-0.3,1.3c-0.2,0.4-0.5,0.6-0.9,0.8
			s-0.9,0.3-1.4,0.3C125.6,91.3,125.4,91.3,125.4,91.3z"/>
		<path class="st1" d="M132.1,82.5h1l2.7,8.8h-1.6l-1.6-5.9l-1.6,5.9h-1.6L132.1,82.5z M131,88.4h3.4v1.5H131V88.4z"/>
		<path class="st1" d="M136.7,82.5h1.6l2.6,6.3l-0.2,0.2v-6.5h1.4v8.8h-1.6l-2.6-6.1l0.2-0.2v6.3h-1.5v-8.8H136.7z"/>
		<path class="st1" d="M143.6,82.5h1.5v8.8h-1.5V82.5z M144.5,89.8h1.6c0.4,0,0.6-0.1,0.8-0.3c0.2-0.2,0.3-0.5,0.3-0.8v-3.5
			c0-0.4-0.1-0.6-0.3-0.8c-0.2-0.2-0.5-0.3-0.8-0.3h-1.6v-1.5h1.6c0.6,0,1,0.1,1.4,0.3s0.7,0.5,0.9,0.9s0.3,0.8,0.3,1.4v3.7
			c0,0.5-0.1,1-0.3,1.4s-0.5,0.7-0.9,0.9c-0.4,0.2-0.9,0.3-1.4,0.3h-1.6V89.8L144.5,89.8z"/>
		<path class="st1" d="M154.6,91.3c0,0-0.2-0.1-0.6-0.3s-0.7-0.5-0.9-0.9s-0.3-0.9-0.3-1.5v-3.5c0-0.6,0.1-1.1,0.3-1.5
			s0.5-0.7,0.9-0.9s0.8-0.3,1.4-0.3c0.5,0,1,0.1,1.4,0.3c0.4,0.2,0.6,0.6,0.8,1s0.3,1,0.4,1.7h-1.6c0-0.3-0.1-0.6-0.2-0.8
			c-0.1-0.2-0.2-0.4-0.3-0.4s-0.3-0.2-0.5-0.2s-0.4,0-0.5,0.1c-0.2,0.1-0.3,0.2-0.4,0.4c-0.1,0.2-0.1,0.4-0.1,0.6v3.5
			c0,0.2,0,0.4,0.1,0.6s0.2,0.3,0.4,0.4s0.3,0.1,0.5,0.1s0.4,0,0.5-0.2s0.2-0.2,0.3-0.4c0.1-0.2,0.1-0.5,0.2-0.8h1.6
			c0,0.7-0.2,1.2-0.4,1.7c-0.2,0.4-0.5,0.8-0.8,1c-0.4,0.2-0.8,0.3-1.3,0.3C154.9,91.3,154.6,91.3,154.6,91.3z"/>
		<path class="st1" d="M161.3,82.5h1l2.7,8.8h-1.6l-1.6-5.9l-1.6,5.9h-1.6L161.3,82.5z M160.1,88.4h3.4v1.5h-3.4V88.4z"/>
		<path class="st1" d="M167.4,91.3c0,0-0.2-0.1-0.6-0.2c-0.4-0.2-0.7-0.4-0.9-0.6s-0.4-0.6-0.5-1.1l1.4-0.6c0.1,0.4,0.3,0.6,0.5,0.8
			s0.5,0.3,0.8,0.3s0.6-0.1,0.8-0.2c0.2-0.2,0.3-0.4,0.3-0.6v-0.4c0-0.2,0-0.4-0.2-0.5c-0.1-0.1-0.2-0.2-0.4-0.3
			c-0.2-0.1-0.4-0.2-0.7-0.2l0,0l0,0h-0.1c-0.5-0.2-0.8-0.3-1.1-0.4c-0.3-0.2-0.6-0.4-0.8-0.7s-0.3-0.8-0.3-1.3v-0.2
			c0-0.5,0.1-0.9,0.3-1.3s0.5-0.6,0.9-0.8s0.9-0.3,1.4-0.3c0.4,0,0.8,0.1,1.1,0.2s0.6,0.4,0.8,0.6s0.4,0.6,0.5,1l-1.4,0.6
			c-0.1-0.3-0.3-0.6-0.5-0.8s-0.4-0.2-0.7-0.2s-0.6,0.1-0.8,0.2c-0.2,0.2-0.3,0.3-0.3,0.6v0.3c0,0.2,0,0.4,0.2,0.5
			c0.1,0.1,0.3,0.2,0.4,0.3s0.4,0.2,0.7,0.3c0,0,0,0,0.1,0c0,0,0,0,0.1,0l0,0l0,0c0.4,0.1,0.8,0.3,1,0.4s0.5,0.4,0.7,0.7
			c0.2,0.3,0.3,0.7,0.3,1.2v0.4c0,0.5-0.1,0.9-0.3,1.3s-0.5,0.6-0.9,0.8s-0.9,0.3-1.4,0.3C167.7,91.3,167.4,91.3,167.4,91.3z"/>
		<path class="st1" d="M171.2,82.5h5.3V84h-5.3V82.5z M173.1,83.3h1.5v8h-1.5V83.3z"/>
		<path class="st1" d="M178.5,91.3h-1.6v-8.8h1.6V91.3z"/>
		<path class="st1" d="M179.9,82.5h1.6l2.6,6.3l-0.2,0.2v-6.5h1.4v8.8h-1.6l-2.6-6.1l0.2-0.2v6.3h-1.4V82.5L179.9,82.5z"/>
		<path class="st1" d="M192,86.4v2.2c0,0.6-0.1,1-0.3,1.4s-0.5,0.7-0.9,1c-0.4,0.2-0.8,0.3-1.4,0.3c-0.5,0-1-0.1-1.4-0.3
			s-0.7-0.5-0.9-0.9s-0.3-0.8-0.3-1.4v-3.6c0-0.6,0.1-1,0.3-1.5c0.2-0.4,0.5-0.7,0.9-1c0.4-0.2,0.8-0.3,1.4-0.3s1,0.1,1.4,0.3
			c0.4,0.2,0.6,0.5,0.9,0.9c0.2,0.4,0.3,0.9,0.4,1.5h-1.6c0-0.2-0.1-0.5-0.2-0.6c-0.1-0.2-0.2-0.3-0.3-0.4s-0.3-0.1-0.5-0.1
			s-0.4,0-0.6,0.2c-0.2,0.1-0.3,0.2-0.4,0.4c-0.1,0.2-0.1,0.4-0.1,0.6v3.6c0,0.2,0,0.4,0.1,0.5c0.1,0.2,0.2,0.3,0.4,0.4
			s0.4,0.1,0.6,0.1s0.4,0,0.6-0.1c0.2-0.1,0.3-0.2,0.4-0.4c0.1-0.2,0.1-0.4,0.1-0.6v-0.7h-1v-1.6L192,86.4L192,86.4z"/>
		<path class="st1" d="M196.2,82.5h1.5v8.8h-1.5V82.5z M196.9,86.3h2.1c0.2,0,0.3,0,0.4-0.1c0.1-0.1,0.2-0.2,0.3-0.3
			c0.1-0.1,0.1-0.3,0.1-0.5v-0.5c0-0.2,0-0.4-0.1-0.5s-0.2-0.2-0.3-0.3c-0.1-0.1-0.2-0.1-0.4-0.1h-2.1v-1.5h2.1
			c0.5,0,0.9,0.1,1.2,0.3c0.4,0.2,0.6,0.4,0.8,0.8s0.3,0.8,0.3,1.2v0.8c0,0.5-0.1,0.9-0.3,1.2c-0.2,0.4-0.5,0.6-0.8,0.8
			c-0.3,0.2-0.8,0.3-1.2,0.3h-2.1V86.3z"/>
		<path class="st1" d="M204.6,82.5h1l2.7,8.8h-1.6l-1.6-5.9l-1.6,5.9h-1.6L204.6,82.5z M203.4,88.4h3.4v1.5h-3.4V88.4L203.4,88.4z"
			/>
		<path class="st1" d="M209.1,82.5h1.5v8.8h-1.5V82.5z M209.8,86.1h2.3c0.2,0,0.3,0,0.4-0.1c0.1,0,0.2-0.2,0.2-0.3
			c0-0.1,0.1-0.3,0.1-0.4v-0.5c0-0.2,0-0.3-0.1-0.4c0-0.1-0.1-0.2-0.2-0.3c-0.1,0-0.2-0.1-0.4-0.1h-2.3v-1.5h2.3
			c0.5,0,0.9,0.1,1.2,0.3c0.4,0.2,0.6,0.4,0.8,0.8s0.3,0.8,0.3,1.2v0.5c0,0.5-0.1,0.9-0.3,1.2c-0.2,0.4-0.4,0.6-0.8,0.8
			s-0.8,0.3-1.2,0.3h-2.3V86.1z M211.3,87.4l1.5-0.3l1.8,4.2h-1.8L211.3,87.4z"/>
		<path class="st1" d="M214.9,82.5h5.3V84h-5.3V82.5z M216.8,83.3h1.5v8h-1.5V83.3z"/>
		<path class="st1" d="M222.4,91.3c0,0-0.2-0.1-0.6-0.2c-0.4-0.2-0.7-0.4-0.9-0.6s-0.4-0.6-0.5-1.1l1.4-0.6c0.1,0.4,0.3,0.6,0.5,0.8
			s0.5,0.3,0.8,0.3s0.6-0.1,0.8-0.2c0.2-0.2,0.3-0.4,0.3-0.6v-0.4c0-0.2,0-0.4-0.2-0.5c-0.1-0.1-0.2-0.2-0.4-0.3
			c-0.2-0.1-0.4-0.2-0.7-0.2l0,0l0,0h-0.1c-0.5-0.2-0.8-0.3-1.1-0.4c-0.3-0.2-0.6-0.4-0.8-0.7c-0.2-0.3-0.3-0.8-0.3-1.3v-0.2
			c0-0.5,0.1-0.9,0.3-1.3s0.5-0.6,0.9-0.8s0.9-0.3,1.4-0.3c0.4,0,0.8,0.1,1.1,0.2s0.6,0.4,0.8,0.6s0.4,0.6,0.5,1l-1.4,0.6
			c-0.1-0.3-0.3-0.6-0.5-0.8s-0.4-0.2-0.7-0.2s-0.6,0.1-0.8,0.2c-0.2,0.2-0.3,0.3-0.3,0.6v0.3c0,0.2,0,0.4,0.2,0.5
			c0.1,0.1,0.3,0.2,0.4,0.3c0.2,0.1,0.4,0.2,0.7,0.3c0,0,0,0,0.1,0c0,0,0,0,0.1,0l0,0l0,0c0.4,0.1,0.8,0.3,1,0.4
			c0.3,0.2,0.5,0.4,0.7,0.7c0.2,0.3,0.3,0.7,0.3,1.2v0.4c0,0.5-0.1,0.9-0.3,1.3s-0.5,0.6-0.9,0.8c-0.4,0.2-0.9,0.3-1.4,0.3
			C222.6,91.3,222.4,91.3,222.4,91.3z"/>
	</g>
</g>
</svg>
