<?xml version="1.0" encoding="utf-8"?>
<!-- Generator: Adobe Illustrator 23.0.2, SVG Export Plug-In . SVG Version: 6.00 Build 0)  -->
<svg version="1.1" id="Layer_1" xmlns="http://www.w3.org/2000/svg" xmlns:xlink="http://www.w3.org/1999/xlink" x="0px" y="0px"
	 viewBox="0 0 170 60" enable-background="new 0 0 170 60" xml:space="preserve">
<rect x="50.6" y="3.4" display="none" width="68.9" height="53.2"/>
<rect x="50.6" y="3.4" fill="none" width="68.9" height="53.2"/>
<g>
	<g>
		<path d="M82.2,9.8c0-1.5,0-2.9,0-4.4c0-0.6,0.8-1.1,1.5-1.1c4.2,0,8.5-0.1,12.7,0c2.5,0,4.9,0.1,7.4,0.2c2.2,0.1,4.5,0.5,6.4,1.9
			c2.1,1.5,3.3,3.6,3.4,6.1c0.2,3.1,0.3,6.2,0.2,9.3c0,1.5-0.3,3-0.8,4.4c-0.8,2.1-2.3,3.7-4.5,4.7c-1.8,0.8-3.7,0.9-5.5,1
			c-2.7,0.1-5.4,0.1-8.1,0.1c-3.7,0-7.3,0-11,0c-0.5,0-1-0.1-1.4-0.3c-0.2-0.1-0.4-0.4-0.4-0.6c-0.1-0.6-0.1-1.2-0.1-1.7
			c0-4.6,0-9.2,0-13.8c0-0.6,0.2-0.8,0.8-0.8c1.6,0,3.2,0,4.7,0c0.5,0,0.6,0.1,0.6,0.6c0,2.2,0,4.3,0,6.5c0,1.2,0,2.4,0,3.6
			c0,1,0.1,1.1,1.1,1.1c3,0,6.1,0,9.1,0c1.4,0,2.9,0,4.3-0.1c1.6-0.1,3-0.4,4.1-1.8c0.6-0.9,0.8-1.9,0.9-2.9
			c0.2-2.8,0.3-5.6-0.2-8.4c-0.3-1.7-1.7-3.1-3.6-3.2c-6.9-0.5-13.8-0.1-20.7-0.2C83,9.8,82.6,9.8,82.2,9.8"/>
		<path d="M14.3,23.2c0,0.9,0,1.7,0,2.6c0,1.6,0,3.3,0.1,4.9c0,0.8-0.3,1.2-1.2,1.2c-1.2,0-2.5,0-3.7,0c-1,0-1.4-0.4-1.4-1.4
			c0-3.8,0-7.5,0-11.3c0-0.6,0.2-0.8,0.7-0.8c1.5,0,3,0,4.5,0c5.2,0,10.4,0,15.6,0c0.7,0,1.5-0.1,2.2-0.3c0.7-0.2,1.2-0.7,1.4-1.4
			c0.2-1.2,0.3-2.4,0.4-3.6c0-0.5-0.2-1.1-0.3-1.6c-0.2-0.9-1.3-1.6-2.4-1.7c-1.5,0-3.1,0-4.6,0c-5.5,0-10.9,0-16.4,0
			c-1.1,0-1.1,0-1.1-1.1c0-0.9,0-1.9,0-2.8c0-0.9,0.5-1.4,1.4-1.5c0.5,0,1.1-0.1,1.6-0.1c6.1,0,12.3-0.1,18.4,0
			c1.7,0,3.3,0.2,4.9,0.7c2.4,0.6,3.8,2.3,4.3,4.7c0.5,2.2,0.5,4.4,0.2,6.6c-0.3,2.3-1.1,4.4-3.4,5.5c-0.7,0.3-1.5,0.6-2.3,0.9
			c0.8,1,1.6,1.9,2.3,2.9c1.4,1.8,2.8,3.5,4.2,5.3c0.4,0.5,0.1,1-0.5,1.1c-1.7,0-3.4,0.1-5.1,0c-0.4,0-1-0.4-1.2-0.8
			c-1.9-2.5-3.8-5-5.7-7.6c-0.1-0.2-0.4-0.3-0.6-0.3c-4,0-7.9,0-11.9,0C14.6,23.2,14.5,23.2,14.3,23.2"/>
		<path d="M79.2,31.6c-0.6,0.1-1,0.3-1.5,0.3c-1.2,0-2.4,0-3.6,0c-0.9,0-1.5-0.3-1.9-1.2c-0.7-1.3-1.4-2.6-2.1-3.9
			c-0.3-0.5-0.7-0.8-1.4-0.8c-5.6,0-11.3,0-16.9,0c-0.6,0-0.8,0.4-1,0.8c-0.7,1.3-1.4,2.6-2.1,3.9c-0.4,0.7-0.8,1.1-1.7,1.1
			c-1.5,0-3,0-4.5,0c-0.8,0-0.9-0.2-0.6-0.9c0.5-1.2,1.2-2.4,1.8-3.5c3.6-6.6,7.1-13.1,10.7-19.6c0.3-0.6,0.7-1.1,1.1-1.7
			c0.7-1,1.6-1.6,2.8-1.8c1.8-0.2,3.6-0.3,5.2,0.5c1,0.6,1.7,1.5,2.3,2.4c1.5,2.6,2.9,5.2,4.3,7.7c2.7,4.9,5.4,9.9,8.1,14.8
			C78.6,30.4,78.8,30.9,79.2,31.6 M53.8,21.6h13.4c-0.2-0.4-0.3-0.7-0.5-1c-1.7-3-3.3-6.1-5-9.1c-0.3-0.6-0.3-1.7-1.4-2
			C58.2,13.4,56,17.6,53.8,21.6"/>
		<path d="M144.9,21c-1.2,1.3-2.3,2.5-3.5,3.7c-2,2.1-4,4.2-6.1,6.3c-0.6,0.6-1.2,0.9-2.1,0.9c-1.4,0-2.7,0-4.1,0
			c-0.5,0-0.9-0.1-1-0.5c-0.1-0.2,0.2-0.6,0.4-0.8c4-4.2,8-8.3,12-12.4c0.2-0.2,0.4-0.5,0.7-0.7c-0.9-0.9-1.7-1.8-2.6-2.7
			c-2.9-3-5.9-6.1-8.8-9.1c-0.3-0.3-0.5-0.6-0.3-1c0.2-0.5,0.5-0.4,0.9-0.4c1.5,0,3,0,4.5,0c1.3,0,1-0.2,1.9,0.8c2,2.1,4,4.2,6,6.4
			c0.6,0.6,1.2,1.2,1.8,1.8c5.1,5.3,10.3,10.6,15.4,15.9c0.6,0.6,1.1,1.2,1.7,1.8c0.4,0.4,0.2,0.6-0.2,0.8c-0.2,0.1-0.5,0.2-0.8,0.2
			c-1.4,0-2.9,0-4.3,0.1c-0.8,0-1.4-0.3-2-0.8c-2.4-2.5-4.8-5-7.3-7.6C146.5,22.8,145.7,22,144.9,21"/>
		<path d="M124.8,18.1c0,4.2,0,8.4,0,12.6c0,0.9-0.4,1.2-1.2,1.2c-1.2,0-2.4,0-3.5,0c-0.9,0-1.2-0.3-1.3-1.2c0-1.2,0-2.5,0-3.7
			c0-6.9,0-13.8,0-20.7c0-2.1,0-2.1,2.1-2.2c0.9,0,1.8,0,2.7,0c0.9,0,1.2,0.3,1.2,1.2C124.8,9.6,124.8,13.9,124.8,18.1
			C124.8,18.1,124.8,18.1,124.8,18.1"/>
		<path fill="#F7AC06" d="M159.3,6.7c-1.9,2-3.9,3.9-5.8,5.8c-0.3,0.3-0.5,0.6-0.7,0.8c-0.3,0.3-0.5,0.4-0.9,0.1
			c-0.8-0.7-1.6-1.5-2.4-2.2c-0.1-0.1-0.3-0.3-0.5-0.4c-0.1-0.1-0.1-0.4,0-0.5c1.6-1.6,3.5-3.4,5.2-5.1c0.2-0.2,0.7-0.3,1-0.3l5.3,0
			c0.3,0,0.4,0.3,0.2,0.5L159.3,6.7z"/>
		<polygon points="60.3,9.5 62,12 63.3,10.7 		"/>
	</g>
	<g>
		<path d="M37.1,39.4h-1.8v-0.9h4.6v0.9h-1.8v5h-1V39.4z"/>
		<path d="M46.4,38.5h3.7v0.9h-2.6v1.5h2.2v0.9h-2.2v1.7h2.7v0.9h-3.8V38.5z"/>
		<path d="M56.6,41.5c0-1.9,1.1-3.1,2.6-3.1c0.7,0,1.3,0.3,1.6,0.7l-0.6,0.6c-0.3-0.3-0.6-0.5-1.1-0.5c-0.9,0-1.6,0.8-1.6,2.1
			c0,1.3,0.7,2.1,1.6,2.1c0.5,0,0.8-0.2,1.2-0.6l0.6,0.6c-0.5,0.6-1.1,0.9-1.8,0.9C57.7,44.5,56.6,43.4,56.6,41.5z"/>
		<path d="M67.2,38.5h1v2.3h2v-2.3h1v5.9h-1v-2.6h-2v2.6h-1V38.5z"/>
		<path d="M77.8,38.5h1.1l1.5,3.3l0.5,1.3h0c0-0.6-0.1-1.3-0.1-2v-2.5h1v5.9h-1.1l-1.5-3.3l-0.5-1.2h0c0,0.6,0.1,1.3,0.1,2v2.6h-1
			V38.5z"/>
		<path d="M88,41.4c0-1.9,0.9-3,2.2-3c1.3,0,2.2,1.1,2.2,3c0,2-0.9,3.1-2.2,3.1C88.9,44.5,88,43.4,88,41.4z M91.5,41.4
			c0-1.3-0.5-2.1-1.2-2.1s-1.2,0.8-1.2,2.1c0,1.4,0.5,2.2,1.2,2.2S91.5,42.8,91.5,41.4z"/>
		<path d="M98.7,41.5c0-1.9,1.1-3.1,2.6-3.1c0.7,0,1.3,0.3,1.6,0.7l-0.6,0.6c-0.3-0.3-0.6-0.5-1.1-0.5c-0.9,0-1.6,0.8-1.6,2.1
			c0,1.3,0.7,2.1,1.6,2.1c0.5,0,0.8-0.2,1.2-0.6l0.6,0.6c-0.5,0.6-1.1,0.9-1.8,0.9C99.8,44.5,98.7,43.4,98.7,41.5z"/>
		<path d="M110.7,38.5h1.2l1.9,5.9h-1.1l-0.9-3.1c-0.2-0.6-0.4-1.3-0.5-1.9h0c-0.2,0.6-0.3,1.3-0.5,1.9l-0.9,3.1h-1L110.7,38.5z
			 M110,42h2.7v0.8H110V42z"/>
		<path d="M119.7,43.6l0.6-0.7c0.4,0.4,1,0.7,1.6,0.7c0.7,0,1-0.3,1-0.7c0-0.5-0.4-0.7-0.9-0.9l-0.8-0.3c-0.6-0.2-1.2-0.7-1.2-1.6
			c0-0.9,0.8-1.6,2-1.6c0.7,0,1.4,0.3,1.8,0.7l-0.5,0.7c-0.4-0.3-0.8-0.5-1.4-0.5c-0.5,0-0.9,0.2-0.9,0.7c0,0.5,0.5,0.6,1,0.8
			l0.8,0.3c0.7,0.3,1.2,0.7,1.2,1.6c0,1-0.8,1.7-2.1,1.7C121.1,44.5,120.3,44.2,119.7,43.6z"/>
		<path d="M131.9,39.4h-1.8v-0.9h4.6v0.9h-1.8v5h-1V39.4z"/>
	</g>
	<g>
		<path fill="#F7AC06" d="M26.2,51.5h0.6l0.6,1.8l0.2,0.7h0l0.2-0.7l0.6-1.8h0.6v4.2h-0.5v-2.1c0-0.4,0.1-1.1,0.1-1.5h0l-0.2,0.8
			l-0.6,1.7h-0.4l-0.6-1.7l-0.2-0.8h0c0,0.4,0.1,1.1,0.1,1.5v2.1h-0.5V51.5z"/>
		<path fill="#F7AC06" d="M29.8,51.5h2.5V52h-2v1.4H32v0.5h-1.7v1.9h-0.5V51.5z"/>
		<path fill="#F7AC06" d="M32.5,53.6c0-1.4,0.8-2.2,1.8-2.2c0.5,0,0.9,0.3,1.1,0.5l-0.3,0.3c-0.2-0.2-0.4-0.4-0.8-0.4
			c-0.8,0-1.3,0.7-1.3,1.7c0,1.1,0.5,1.7,1.3,1.7c0.3,0,0.6-0.1,0.7-0.2V54h-0.8v-0.4h1.3v1.8c-0.3,0.3-0.7,0.5-1.2,0.5
			C33.2,55.8,32.5,55,32.5,53.6z"/>
		<path fill="#F7AC06" d="M36.7,55.3c0-0.3,0.2-0.5,0.5-0.5c0.3,0,0.5,0.2,0.5,0.5c0,0.3-0.2,0.5-0.5,0.5
			C36.9,55.8,36.7,55.6,36.7,55.3z"/>
		<path fill="#F7AC06" d="M42,54.6c0-1.2,1.8-1.5,1.8-2.4c0-0.2-0.1-0.5-0.4-0.5c-0.3,0-0.5,0.3-0.5,0.6c0,0.8,0.8,1.8,1.6,2.5
			c0.3,0.3,0.6,0.4,0.8,0.5l-0.1,0.4c-0.3-0.1-0.6-0.3-1-0.6c-0.9-0.7-1.7-1.9-1.7-2.8c0-0.6,0.4-1,0.9-1c0.5,0,0.8,0.3,0.8,0.8
			c0,1.1-1.7,1.4-1.7,2.3c0,0.5,0.4,0.8,0.8,0.8c0.3,0,0.6-0.2,0.9-0.5c0.3-0.4,0.5-0.9,0.7-1.4h0.5c-0.2,0.6-0.4,1.2-0.8,1.7
			c-0.3,0.4-0.7,0.7-1.3,0.7C42.5,55.8,42,55.3,42,54.6z"/>
		<path fill="#F7AC06" d="M48.5,55.2l0.3-0.4c0.3,0.3,0.7,0.5,1.2,0.5c0.6,0,0.9-0.3,0.9-0.7c0-0.5-0.3-0.6-0.7-0.8l-0.6-0.3
			c-0.4-0.2-0.9-0.5-0.9-1.1c0-0.6,0.6-1.1,1.4-1.1c0.5,0,1,0.2,1.3,0.5L51,52.3c-0.3-0.2-0.6-0.4-1-0.4c-0.5,0-0.8,0.2-0.8,0.6
			c0,0.4,0.4,0.6,0.7,0.7l0.6,0.3c0.5,0.2,0.9,0.5,0.9,1.1c0,0.7-0.6,1.2-1.5,1.2C49.4,55.8,48.9,55.6,48.5,55.2z"/>
		<path fill="#F7AC06" d="M51.7,54.1v-2.6h0.5v2.7c0,0.9,0.4,1.2,0.9,1.2c0.5,0,0.9-0.3,0.9-1.2v-2.7h0.5v2.6c0,1.2-0.6,1.7-1.4,1.7
			C52.3,55.8,51.7,55.4,51.7,54.1z"/>
		<path fill="#F7AC06" d="M55.1,51.5h1.3c0.9,0,1.5,0.3,1.5,1.2c0,0.9-0.6,1.3-1.5,1.3h-0.7v1.7h-0.5V51.5z M56.3,53.6
			c0.7,0,1.1-0.3,1.1-0.9c0-0.6-0.4-0.8-1.1-0.8h-0.7v1.7H56.3z"/>
		<path fill="#F7AC06" d="M58.3,51.5h1.3c0.9,0,1.5,0.3,1.5,1.2c0,0.9-0.6,1.3-1.5,1.3h-0.7v1.7h-0.5V51.5z M59.4,53.6
			c0.7,0,1.1-0.3,1.1-0.9c0-0.6-0.4-0.8-1.1-0.8h-0.7v1.7H59.4z"/>
		<path fill="#F7AC06" d="M61.6,51.5h0.5v3.8h2v0.5h-2.6V51.5z"/>
		<path fill="#F7AC06" d="M64.6,55.3h1V52h-1v-0.5h2.6V52h-1v3.3h1v0.5h-2.6V55.3z"/>
		<path fill="#F7AC06" d="M67.9,51.5h2.6V52h-2v1.3h1.7v0.5h-1.7v1.5h2.1v0.5h-2.6V51.5z"/>
		<path fill="#F7AC06" d="M71,51.5h1.3c0.8,0,1.5,0.3,1.5,1.2c0,0.8-0.6,1.3-1.5,1.3h-0.8v1.8H71V51.5z M72.2,53.5
			c0.6,0,1-0.3,1-0.8c0-0.6-0.4-0.8-1-0.8h-0.7v1.6H72.2z M72.6,53.5l1.3,2.2h-0.6l-1.1-1.9L72.6,53.5z"/>
		<path fill="#F7AC06" d="M77,53.6c0-1.4,0.7-2.2,1.6-2.2s1.6,0.8,1.6,2.2c0,1.4-0.7,2.2-1.6,2.2S77,55,77,53.6z M79.6,53.6
			c0-1.1-0.4-1.7-1-1.7s-1,0.6-1,1.7c0,1.1,0.4,1.7,1,1.7S79.6,54.7,79.6,53.6z"/>
		<path fill="#F7AC06" d="M80.7,51.5h2.5V52h-2v1.4H83v0.5h-1.7v1.9h-0.5V51.5z"/>
		<path fill="#F7AC06" d="M86.7,55.2l0.3-0.4c0.3,0.3,0.7,0.5,1.2,0.5c0.6,0,0.9-0.3,0.9-0.7c0-0.5-0.3-0.6-0.7-0.8l-0.6-0.3
			c-0.4-0.2-0.9-0.5-0.9-1.1c0-0.6,0.6-1.1,1.4-1.1c0.5,0,1,0.2,1.3,0.5l-0.3,0.3c-0.3-0.2-0.6-0.4-1-0.4c-0.5,0-0.8,0.2-0.8,0.6
			c0,0.4,0.4,0.6,0.7,0.7l0.6,0.3c0.5,0.2,0.9,0.5,0.9,1.1c0,0.7-0.6,1.2-1.5,1.2C87.6,55.8,87.1,55.6,86.7,55.2z"/>
		<path fill="#F7AC06" d="M91,51.5h0.6l1.4,4.2h-0.6l-0.7-2.4c-0.1-0.5-0.3-0.9-0.4-1.4h0c-0.1,0.5-0.3,1-0.4,1.4l-0.7,2.4h-0.5
			L91,51.5z M90.4,54h1.9v0.4h-1.9V54z"/>
		<path fill="#F7AC06" d="M93.1,51.5h0.6l1.3,2.7l0.4,0.9h0c0-0.4-0.1-0.9-0.1-1.3v-2.2h0.5v4.2h-0.6L94,53.1l-0.4-0.9h0
			c0,0.4,0.1,0.9,0.1,1.3v2.2h-0.5V51.5z"/>
		<path fill="#F7AC06" d="M96.4,51.5h1c1.2,0,1.9,0.8,1.9,2.1c0,1.4-0.7,2.1-1.9,2.1h-1V51.5z M97.3,55.3c0.9,0,1.4-0.6,1.4-1.7
			c0-1.1-0.5-1.7-1.4-1.7h-0.5v3.3H97.3z"/>
		<path fill="#F7AC06" d="M102.6,53.6c0-1.4,0.8-2.2,1.9-2.2c0.5,0,0.9,0.2,1.1,0.5l-0.3,0.3c-0.2-0.2-0.5-0.4-0.8-0.4
			c-0.8,0-1.3,0.7-1.3,1.7c0,1.1,0.5,1.7,1.3,1.7c0.4,0,0.7-0.2,0.9-0.5l0.3,0.3c-0.3,0.4-0.7,0.6-1.3,0.6
			C103.4,55.8,102.6,55,102.6,53.6z"/>
		<path fill="#F7AC06" d="M107,51.5h0.6l1.4,4.2h-0.6l-0.7-2.4c-0.1-0.5-0.3-0.9-0.4-1.4h0c-0.1,0.5-0.3,1-0.4,1.4l-0.7,2.4h-0.5
			L107,51.5z M106.3,54h1.9v0.4h-1.9V54z"/>
		<path fill="#F7AC06" d="M109,55.2l0.3-0.4c0.3,0.3,0.7,0.5,1.2,0.5c0.6,0,0.9-0.3,0.9-0.7c0-0.5-0.3-0.6-0.7-0.8l-0.6-0.3
			c-0.4-0.2-0.9-0.5-0.9-1.1c0-0.6,0.6-1.1,1.4-1.1c0.5,0,1,0.2,1.3,0.5l-0.3,0.3c-0.3-0.2-0.6-0.4-1-0.4c-0.5,0-0.8,0.2-0.8,0.6
			c0,0.4,0.4,0.6,0.7,0.7l0.6,0.3c0.5,0.2,0.9,0.5,0.9,1.1c0,0.7-0.6,1.2-1.5,1.2C109.9,55.8,109.3,55.6,109,55.2z"/>
		<path fill="#F7AC06" d="M113.4,52H112v-0.5h3.3V52h-1.4v3.8h-0.5V52z"/>
		<path fill="#F7AC06" d="M115.5,55.3h1V52h-1v-0.5h2.6V52h-1v3.3h1v0.5h-2.6V55.3z"/>
		<path fill="#F7AC06" d="M118.6,51.5h0.6l1.3,2.7l0.4,0.9h0c0-0.4-0.1-0.9-0.1-1.3v-2.2h0.5v4.2h-0.6l-1.3-2.7l-0.4-0.9h0
			c0,0.4,0.1,0.9,0.1,1.3v2.2h-0.5V51.5z"/>
		<path fill="#F7AC06" d="M121.6,53.6c0-1.4,0.8-2.2,1.8-2.2c0.5,0,0.9,0.3,1.1,0.5l-0.3,0.3c-0.2-0.2-0.4-0.4-0.8-0.4
			c-0.8,0-1.3,0.7-1.3,1.7c0,1.1,0.5,1.7,1.3,1.7c0.3,0,0.6-0.1,0.7-0.2V54h-0.8v-0.4h1.3v1.8c-0.3,0.3-0.7,0.5-1.2,0.5
			C122.4,55.8,121.6,55,121.6,53.6z"/>
		<path fill="#F7AC06" d="M128.3,51.5h1.3c0.9,0,1.5,0.3,1.5,1.2c0,0.9-0.6,1.3-1.5,1.3h-0.7v1.7h-0.5V51.5z M129.5,53.6
			c0.7,0,1.1-0.3,1.1-0.9c0-0.6-0.4-0.8-1.1-0.8h-0.7v1.7H129.5z"/>
		<path fill="#F7AC06" d="M132.4,51.5h0.6l1.4,4.2h-0.6l-0.7-2.4c-0.1-0.5-0.3-0.9-0.4-1.4h0c-0.1,0.5-0.3,1-0.4,1.4l-0.7,2.4H131
			L132.4,51.5z M131.8,54h1.9v0.4h-1.9V54z"/>
		<path fill="#F7AC06" d="M134.6,51.5h1.3c0.8,0,1.5,0.3,1.5,1.2c0,0.8-0.6,1.3-1.5,1.3h-0.8v1.8h-0.5V51.5z M135.9,53.5
			c0.6,0,1-0.3,1-0.8c0-0.6-0.4-0.8-1-0.8h-0.7v1.6H135.9z M136.2,53.5l1.3,2.2h-0.6l-1.1-1.9L136.2,53.5z"/>
		<path fill="#F7AC06" d="M138.8,52h-1.4v-0.5h3.3V52h-1.4v3.8h-0.5V52z"/>
		<path fill="#F7AC06" d="M140.8,55.2l0.3-0.4c0.3,0.3,0.7,0.5,1.2,0.5c0.6,0,0.9-0.3,0.9-0.7c0-0.5-0.3-0.6-0.7-0.8l-0.6-0.3
			c-0.4-0.2-0.9-0.5-0.9-1.1c0-0.6,0.6-1.1,1.4-1.1c0.5,0,1,0.2,1.3,0.5l-0.3,0.3c-0.3-0.2-0.6-0.4-1-0.4c-0.5,0-0.8,0.2-0.8,0.6
			c0,0.4,0.4,0.6,0.7,0.7l0.6,0.3c0.5,0.2,0.9,0.5,0.9,1.1c0,0.7-0.6,1.2-1.5,1.2C141.7,55.8,141.2,55.6,140.8,55.2z"/>
	</g>
</g>
</svg>
